<?xml version="1.0" encoding="utf-8"?>
<!-- Generator: Adobe Illustrator 22.1.0, SVG Export Plug-In . SVG Version: 6.00 Build 0)  -->
<svg version="1.1" id="Layer_1" xmlns="http://www.w3.org/2000/svg" xmlns:xlink="http://www.w3.org/1999/xlink" x="0px" y="0px"
	 viewBox="0 0 32.5 15" style="enable-background:new 0 0 32.5 15;" xml:space="preserve">
<style type="text/css">
	.st0{display:none;fill:#FDBA4D;}
	.st1{fill:#1D1D1B;}
</style>
<path class="st0" d="M23.9,11.9c0,0.2,0,0.5-0.2,0.7l-2.2,2.1c-0.1,0.1-0.2,0.2-0.4,0.3c-0.2,0.1-0.3,0.1-0.5,0.1c0,0,0,0-0.1,0
	c-0.1,0-0.1,0-0.2,0c-0.2,0-0.5,0-1-0.1c-0.5-0.1-1-0.2-1.7-0.5c-0.7-0.3-1.4-0.7-2.3-1.2c-0.8-0.6-1.7-1.3-2.7-2.3
	c-0.8-0.7-1.4-1.5-1.9-2.2C10.3,8.2,9.9,7.6,9.6,7C9.3,6.4,9.1,5.9,8.9,5.4C8.8,4.9,8.7,4.5,8.6,4.2C8.6,3.8,8.6,3.6,8.6,3.4
	c0-0.2,0-0.3,0-0.3c0-0.2,0.1-0.3,0.1-0.5C8.8,2.4,8.9,2.3,9,2.2L11.2,0c0.2-0.2,0.3-0.2,0.5-0.2c0.1,0,0.3,0,0.4,0.1
	c0.1,0.1,0.2,0.2,0.3,0.3l1.7,3.3c0.1,0.2,0.1,0.4,0.1,0.6c0,0.2-0.1,0.4-0.3,0.5l-0.8,0.8c0,0,0,0.1-0.1,0.1c0,0,0,0.1,0,0.1
	c0,0.2,0.1,0.5,0.3,0.8c0.1,0.3,0.3,0.6,0.6,1c0.3,0.4,0.7,0.8,1.2,1.3c0.5,0.5,0.9,0.9,1.3,1.2c0.4,0.3,0.7,0.5,1,0.6
	c0.3,0.1,0.5,0.2,0.6,0.2l0.2,0c0,0,0.1,0,0.1,0c0,0,0.1,0,0.1-0.1l0.9-0.9c0.2-0.2,0.4-0.3,0.7-0.3c0.2,0,0.3,0,0.4,0.1h0l3.1,1.9
	C23.8,11.6,23.9,11.7,23.9,11.9z"/>
<path class="st0" d="M22.9,0.8H9.6c-1.2,0-2.2,1-2.2,2.2v8.9c0,1.2,1,2.2,2.2,2.2h13.3c1.2,0,2.2-1,2.2-2.2V3.1
	C25.1,1.8,24.1,0.8,22.9,0.8z M19.3,6.8l4.7-4C24,2.8,24,2.9,24,3.1v8.9c0,0.1,0,0.1,0,0.2L19.3,6.8z M22.9,1.9c0.1,0,0.1,0,0.2,0
	l-6.9,5.9L9.4,2c0.1,0,0.1,0,0.2,0H22.9z M8.5,12.2c0-0.1,0-0.1,0-0.2V3.1c0-0.1,0-0.2,0.1-0.3l4.7,4L8.5,12.2z M9.6,13.1
	c-0.1,0-0.2,0-0.3-0.1l4.8-5.5L15.9,9c0.1,0.1,0.2,0.1,0.4,0.1c0.1,0,0.3,0,0.4-0.1l1.8-1.5l4.8,5.5c-0.1,0-0.2,0.1-0.3,0.1H9.6z"/>
<path class="st0" d="M16.2-2.1c-3.7,0-6.7,3-6.7,6.7c0,6.7,6.7,12.6,6.7,12.6s6.7-6,6.7-12.6C22.9,0.8,19.9-2.1,16.2-2.1z M16.2,7.7
	c-1.8,0-3.2-1.4-3.2-3.2c0-1.8,1.4-3.2,3.2-3.2s3.2,1.4,3.2,3.2C19.5,6.3,18,7.7,16.2,7.7z"/>
<polygon class="carousel-arrow" points="25.2,1.5 24.5,2.2 29.3,7 2,7 2,8 29.3,8 24.5,12.8 25.2,13.5 31.2,7.5 "/>
</svg>
