<?xml version="1.0" encoding="utf-8"?>
<!-- Generator: Adobe Illustrator 22.1.0, SVG Export Plug-In . SVG Version: 6.00 Build 0)  -->
<svg version="1.1" id="Layer_1" xmlns="http://www.w3.org/2000/svg" xmlns:xlink="http://www.w3.org/1999/xlink" x="0px" y="0px"
	 viewBox="0 0 22 22" style="enable-background:new 0 0 22 22;" xml:space="preserve">
<style type="text/css">
	.st0{display:none;fill:#FDBA4D;}
	.st1{fill:none;stroke:url(#SVGID_1_);stroke-miterlimit:10;}
</style>
<path class="st0" d="M18.7,15.4c0,0.2,0,0.5-0.2,0.7l-2.2,2.1c-0.1,0.1-0.2,0.2-0.4,0.3c-0.2,0.1-0.3,0.1-0.5,0.1c0,0,0,0-0.1,0
	c-0.1,0-0.1,0-0.2,0c-0.2,0-0.5,0-1-0.1c-0.5-0.1-1-0.2-1.7-0.5c-0.7-0.3-1.4-0.7-2.3-1.2c-0.8-0.6-1.7-1.3-2.7-2.3
	c-0.8-0.7-1.4-1.5-1.9-2.2c-0.5-0.7-0.9-1.3-1.2-1.9C4.1,9.9,3.8,9.4,3.7,8.9C3.5,8.4,3.4,8,3.4,7.7C3.3,7.3,3.3,7.1,3.3,6.9
	c0-0.2,0-0.3,0-0.3c0-0.2,0.1-0.3,0.1-0.5c0.1-0.2,0.2-0.3,0.3-0.4l2.2-2.2c0.2-0.2,0.3-0.2,0.5-0.2c0.1,0,0.3,0,0.4,0.1
	C6.9,3.5,7,3.6,7.1,3.7L8.8,7C8.9,7.2,9,7.4,8.9,7.6c0,0.2-0.1,0.4-0.3,0.5L7.8,8.9c0,0,0,0.1-0.1,0.1c0,0,0,0.1,0,0.1
	c0,0.2,0.1,0.5,0.3,0.8c0.1,0.3,0.3,0.6,0.6,1c0.3,0.4,0.7,0.8,1.2,1.3c0.5,0.5,0.9,0.9,1.3,1.2c0.4,0.3,0.7,0.5,1,0.6
	c0.3,0.1,0.5,0.2,0.6,0.2l0.2,0c0,0,0.1,0,0.1,0c0,0,0.1,0,0.1-0.1l0.9-0.9c0.2-0.2,0.4-0.3,0.7-0.3c0.2,0,0.3,0,0.4,0.1h0l3.1,1.9
	C18.5,15.1,18.6,15.2,18.7,15.4z"/>
<path class="st0" d="M17.7,4.3H4.3c-1.2,0-2.2,1-2.2,2.2v8.9c0,1.2,1,2.2,2.2,2.2h13.3c1.2,0,2.2-1,2.2-2.2V6.6
	C19.9,5.3,18.9,4.3,17.7,4.3z M14,10.3l4.7-4c0,0.1,0.1,0.2,0.1,0.3v8.9c0,0.1,0,0.1,0,0.2L14,10.3z M17.7,5.4c0.1,0,0.1,0,0.2,0
	L11,11.4L4.1,5.5c0.1,0,0.1,0,0.2,0H17.7z M3.3,15.7c0-0.1,0-0.1,0-0.2V6.6c0-0.1,0-0.2,0.1-0.3l4.7,4L3.3,15.7z M4.3,16.6
	c-0.1,0-0.2,0-0.3-0.1L8.8,11l1.8,1.5c0.1,0.1,0.2,0.1,0.4,0.1c0.1,0,0.3,0,0.4-0.1l1.8-1.5l4.8,5.5c-0.1,0-0.2,0.1-0.3,0.1H4.3z"/>
<path class="st0" d="M11,1.4c-3.7,0-6.7,3-6.7,6.7c0,6.7,6.7,12.6,6.7,12.6s6.7-6,6.7-12.6C17.7,4.3,14.7,1.4,11,1.4z M11,11.2
	c-1.8,0-3.2-1.4-3.2-3.2c0-1.8,1.4-3.2,3.2-3.2s3.2,1.4,3.2,3.2C14.2,9.8,12.8,11.2,11,11.2z"/>
<linearGradient id="SVGID_1_" gradientUnits="userSpaceOnUse" x1="0.3442" y1="10.8232" x2="21.6558" y2="10.8232">
	<stop  offset="0" style="stop-color:#FFFFFF"/>
	<stop  offset="1" style="stop-color:#E0E0E0"/>
</linearGradient>
<polyline class="st1" points="0.7,16.2 11,5.8 21.3,16.2 "/>
</svg>
