<?xml version="1.0" encoding="UTF-8"?>
<svg width="29px" height="29px" viewBox="0 0 29 29" version="1.1" xmlns="http://www.w3.org/2000/svg" xmlns:xlink="http://www.w3.org/1999/xlink">
    <!-- Generator: Sketch 57.1 (83088) - https://sketch.com -->
    <title>noun_Community_2088450</title>
    <desc>Created with Sketch.</desc>
    <g id="Cerrado" stroke="none" stroke-width="1" fill="none" fill-rule="evenodd">
        <g id="Home-desplegado-2" transform="translate(-240.000000, -2966.000000)" stroke="#FFFFFF">
            <g id="Categories" transform="translate(221.000000, 2784.000000)">
                <g id="noun_Community_2088450" transform="translate(20.000000, 183.000000)">
                    <g id="Group">
                        <path d="M6.7769739,11.8363214 C6.60045908,12.2675863 6.10775624,12.4741021 5.67649132,12.2975873 C5.24522639,12.1210724 5.03871063,11.6283696 5.21522546,11.1971047 C5.48105367,10.5476273 5.8224665,9.93273184 6.2312333,9.36517231 C6.91201412,8.41918725 7.7712177,7.6146635 8.7578181,7.00061426 C9.15344061,6.75438316 9.67376576,6.87548882 9.91999685,7.27111133 C10.166228,7.66673384 10.0451223,8.18705899 9.64949978,8.43329009 C8.85020958,8.93075952 8.1532894,9.58332761 7.60073937,10.3511283 C7.26918015,10.8114877 6.99241552,11.3099497 6.7769739,11.8363214 Z M14.5291191,21.7618496 C14.9892924,21.6884513 15.4218378,22.0019947 15.4952361,22.462168 C15.5686344,22.9223415 15.2550911,23.3548869 14.7949176,23.4282852 C14.3407276,23.500729 13.8779028,23.5372304 13.4095345,23.5372304 C13.0688427,23.5372304 12.7305636,23.517838 12.3958146,23.4793353 C11.2348826,23.3460147 10.1230146,22.9841293 9.11323343,22.4190384 C8.70658782,22.1914723 8.56141504,21.6773424 8.78898098,21.2706967 C9.01654692,20.8640511 9.53067697,20.7188783 9.9373226,20.9464443 C10.7533377,21.4031005 11.6507303,21.6951794 12.5884897,21.802871 C12.85938,21.8340287 13.1332791,21.8497304 13.4095345,21.8497304 C13.7891003,21.8497304 14.1630476,21.8202385 14.5291191,21.7618496 Z M19.060221,10.1397013 C18.7744877,9.77159339 18.8412654,9.24155039 19.2093733,8.95581709 C19.5774812,8.67008377 20.1075242,8.73686154 20.3932575,9.10496941 C20.8125368,9.64512344 21.1691845,10.232216 21.4550749,10.8544457 C21.9388048,11.9057999 22.2153852,13.0469727 22.26439,14.2263668 C22.2837356,14.6919554 21.9219842,15.0850721 21.4563958,15.1044177 C20.9908072,15.1237632 20.5976905,14.7620119 20.5783449,14.2964234 C20.5385029,13.3375503 20.3142063,12.4121015 19.9218702,11.5593849 C19.6898442,11.0543893 19.4004776,10.578051 19.060221,10.1397013 Z" id="Shape" stroke-width="0.2"></path>
                        <path d="M16.6485501,6.51609783 C16.6485501,4.62436823 15.1311268,3.09375 13.262979,3.09375 C11.3948312,3.09375 9.87740786,4.62436823 9.87740786,6.51609783 C9.87740786,8.40782742 11.3948312,9.93844565 13.262979,9.93844565 C15.1311268,9.93844565 16.6485501,8.40782742 16.6485501,6.51609783 Z M18.3360501,6.51609783 C18.3360501,9.33655301 16.0663937,11.6259456 13.262979,11.6259456 C10.4595644,11.6259456 8.18990786,9.33655301 8.18990786,6.51609783 C8.18990786,3.69564264 10.4595644,1.40625 13.262979,1.40625 C16.0663937,1.40625 18.3360501,3.69564264 18.3360501,6.51609783 Z M23.8928276,18.4273777 C23.8928276,16.5356481 22.3754043,15.0050298 20.5072565,15.0050298 C18.6391086,15.0050298 17.1216854,16.5356481 17.1216854,18.4273777 C17.1216854,20.3191073 18.6391086,21.8497256 20.5072565,21.8497256 C22.3754043,21.8497256 23.8928276,20.3191073 23.8928276,18.4273777 Z M25.5803276,18.4273777 C25.5803276,21.2478329 23.3106711,23.5372256 20.5072565,23.5372256 C17.7038418,23.5372256 15.4341854,21.2478329 15.4341854,18.4273777 C15.4341854,15.6069225 17.7038418,13.3175298 20.5072565,13.3175298 C23.3106711,13.3175298 25.5803276,15.6069225 25.5803276,18.4273777 Z M9.86489224,18.7230521 C9.86489224,16.8313226 8.347469,15.3007044 6.47932112,15.3007044 C4.61117324,15.3007044 3.09375,16.8313226 3.09375,18.7230521 C3.09375,20.6147818 4.61117324,22.1454 6.47932112,22.1454 C8.347469,22.1454 9.86489224,20.6147818 9.86489224,18.7230521 Z M11.5523922,18.7230521 C11.5523922,21.5435073 9.28273574,23.8329 6.47932112,23.8329 C3.6759065,23.8329 1.40625,21.5435073 1.40625,18.7230521 C1.40625,15.902597 3.6759065,13.6132044 6.47932112,13.6132044 C9.28273574,13.6132044 11.5523922,15.902597 11.5523922,18.7230521 Z" id="Shape" stroke-width="0.2"></path>
                    </g>
                </g>
            </g>
        </g>
    </g>
</svg>