<?xml version="1.0" encoding="utf-8"?>
<!-- Generator: Adobe Illustrator 22.1.0, SVG Export Plug-In . SVG Version: 6.00 Build 0)  -->
<svg version="1.1" id="Layer_1" xmlns="http://www.w3.org/2000/svg" xmlns:xlink="http://www.w3.org/1999/xlink" x="0px" y="0px"
	 viewBox="0 0 37.6 38.6" style="enable-background:new 0 0 37.6 38.6;" xml:space="preserve">
<style type="text/css">
	.st0{display:none;}
	.st1{display:inline;fill:#FFFFFF;}
	.st2{display:inline;}
	.st3{fill:#FFFFFF;}
	.st4{fill:#FDBA4D;}
	.st5{fill:#1D1D1B;}
</style>
<g class="st0">
	<path class="st1" d="M18.2,14.5c0,0.8-0.8,1.6-1.8,1.6c-0.4,0-5.6,0-6.1,0c-0.6,0-1.1-0.3-1.5-0.5c-0.3-0.3-2.5-1.9-3.3-2.4l-1.9,7
		l-0.2,0.6c0,0,5.3,4.7,5.5,4.9c0.6,0.6,0.8,1.3,1.1,2.9c0.3,1.6,0.9,6.9,1,7.9c0.2,1.1-0.2,2.3-1.2,2.6c-1.1,0.3-2.1-0.5-2.5-1.8
		C7.2,36,6,28.5,6,28.5l-6.1-4.4c0,0-1.7,5.4-1.9,5.8c-0.1,0.4-0.3,0.7-0.8,1.4c-0.5,0.5-6.1,6-7.2,7.1c-0.5,0.5-1.3,0.8-2,0.6
		c-0.8-0.2-1.4-0.9-1.4-1.8c0-0.7,0.3-1.4,0.7-1.8l6.1-6.1l2.4-9.6l2.4-7.8l0.9-2.8C-0.2,7.1,1.9,6.5,3.5,7c1.7,0.5,2.1,1,3.1,1.9
		c0,0,4,3.6,4.1,3.6c0.1,0.1,0.2,0.1,0.3,0.2c0.2,0,4.4,0.1,5.3,0C17.4,12.8,18.2,13.5,18.2,14.5z"/>
	<circle class="st1" cx="4.9" cy="2.9" r="3.4"/>
	<path class="st1" d="M46.6,22.2L46.6,22.2c0-0.7,0-1.5,0-2.3l0,0.1l4.3-2.8L48.4,11l-5,1.1l0.1,0.1c-0.5-0.6-1.2-1.2-1.8-1.8
		l0.1,0.1l1.1-5L36.7,3L34,7.4l0.1,0.1c-0.8-0.1-1.6-0.1-2.5,0l0.1,0L29,3.1l-6.1,2.6l1.1,5h0c-0.6,0.5-1.1,1-1.6,1.6l0,0l-5-1.1
		l-1.3,3.1l-1.3,3.1l4.3,2.7c-0.1,0.8-0.1,1.5,0,2.3L14.9,25l2.6,6.1l4.9-1.1c0.5,0.6,1.1,1.1,1.7,1.6L23,36.6l3.1,1.3l3.1,1.3
		l2.7-4.3c0.8,0.1,1.5,0.1,2.3,0l2.7,4.3l6.1-2.6l-1.1-5c0.6-0.5,1.1-1,1.6-1.6l5,1.1l1.3-3.1l1.3-3.1L46.6,22.2z M32.9,28.3
		c-4,0-7.2-3.2-7.2-7.2s3.2-7.2,7.2-7.2s7.2,3.2,7.2,7.2S36.9,28.3,32.9,28.3z"/>
</g>
<g class="st0">
	<path class="st1" d="M35.7,26c-2-2-5-2.6-7.5-1.7L13.8,9.9c0.9-2.5,0.3-5.5-1.7-7.5c-1.5-1.5-3.4-2.2-5.3-2.1C6,0.3,5.8,1,6.4,1.6
		l1.9,1.9C10,5.2,10,7,8.2,8.7c-1.8,1.8-3.6,1.8-5.3,0L1.1,6.9C0.5,6.3-0.2,6.5-0.2,7.3c0,1.9,0.7,3.8,2.1,5.3c2,2,5,2.6,7.5,1.7
		l14.4,14.4c-0.9,2.5-0.3,5.5,1.7,7.5c1.5,1.5,3.4,2.2,5.3,2.1c0.9,0,1-0.7,0.4-1.3l-1.9-1.9c-1.8-1.8-1.8-3.6,0-5.3
		c1.8-1.8,3.6-1.8,5.3,0l1.9,1.9c0.6,0.6,1.3,0.4,1.3-0.4C37.9,29.4,37.2,27.5,35.7,26z"/>
	<path class="st1" d="M31,9.9c0.1-0.1,0.3-0.3,0.5-0.3l2.6-1.2C34.5,8.2,34.7,8,35,7.6L37.1,4c0.1-0.2,0.1-0.3-0.1-0.5l-1.7-1.7
		c-0.2-0.2-0.3-0.2-0.5-0.1l-3.6,2.1c-0.4,0.2-0.6,0.4-0.8,0.9l-1.2,2.6c-0.1,0.2-0.2,0.3-0.3,0.5L13.3,23.4l2.1,2.1L31,9.9z"/>
	<path class="st1" d="M10.5,21.9c-0.3,0-0.6,0.2-0.8,0.4l-7.6,7.6c-2.4,2.4-2.2,4.4,0,6.5l0.3,0.3c2.2,2.2,4.1,2.4,6.5,0l7.6-7.6
		c0.2-0.2,0.3-0.5,0.4-0.8c0.1-0.6,0.2-1.4,0.8-2.1c0.1-0.2,0.1-0.5,0-0.6l-4.4-4.4c-0.2-0.2-0.4-0.2-0.6,0
		C11.9,21.7,11.1,21.9,10.5,21.9z M2.5,33.5c-0.4-0.4-0.4-0.9,0-1.3l8.3-8.3c0.2-0.2,0.4-0.3,0.7-0.3c0.2,0,0.5,0.1,0.7,0.3
		c0.4,0.4,0.4,0.9,0,1.3l-8.3,8.3C3.4,33.9,2.9,33.9,2.5,33.5z M14.3,26.5c0.2,0,0.5,0.1,0.7,0.3c0.4,0.4,0.4,0.9,0,1.3l-8.3,8.3
		c-0.4,0.4-0.9,0.4-1.3,0C5,36,5,35.4,5.3,35l8.3-8.3C13.8,26.6,14,26.5,14.3,26.5z"/>
</g>
<g class="st0">
	<path class="st1" d="M10.7,20.4v-9.8c0-0.5-0.4-0.9-0.9-0.9H-2c-1,0-1.8,0.8-1.8,1.8v17.4c0,1,0.8,1.8,1.8,1.8h0
		c0.5,0,0.9,0.4,0.9,0.9v4.9c0,0.4,0.2,0.7,0.5,0.8c0.1,0.1,0.2,0.1,0.4,0.1c0.2,0,0.5-0.1,0.6-0.2L7.1,31c0.2-0.2,0.4-0.2,0.6-0.2
		h15.6c1,0,1.8-0.8,1.8-1.8v-4c0-0.5-0.4-0.9-0.9-0.9h-10C12.3,24,10.7,22.4,10.7,20.4z"/>
	<path class="st1" d="M39.7,1.2H14.3c-1,0-1.8,0.8-1.8,1.8v17.4c0,1,0.8,1.8,1.8,1.8h15.6c0.2,0,0.4,0.1,0.6,0.2l6.7,6.2
		c0.2,0.2,0.4,0.2,0.6,0.2c0.1,0,0.3,0,0.4-0.1c0.3-0.1,0.5-0.5,0.5-0.8v-4.9c0-0.5,0.4-0.9,0.9-0.9l0,0c1,0,1.8-0.8,1.8-1.8V3
		C41.5,2,40.7,1.2,39.7,1.2z M33.3,16.9H19.7c-0.5,0-0.9-0.4-0.9-0.9c0-0.5,0.4-0.9,0.9-0.9h13.6c0.5,0,0.9,0.4,0.9,0.9
		C34.2,16.4,33.8,16.9,33.3,16.9z M33.3,12.6H19.7c-0.5,0-0.9-0.4-0.9-0.9c0-0.5,0.4-0.9,0.9-0.9h13.6c0.5,0,0.9,0.4,0.9,0.9
		C34.2,12.2,33.8,12.6,33.3,12.6z M33.3,8.3H19.7c-0.5,0-0.9-0.4-0.9-0.9c0-0.5,0.4-0.9,0.9-0.9h13.6c0.5,0,0.9,0.4,0.9,0.9
		C34.2,7.9,33.8,8.3,33.3,8.3z"/>
</g>
<g class="st0">
	<g class="st2">
		<path class="st3" d="M13.1,1.8c2.3,0,4.7,0,7,0c0.9-0.1,1.8,0.3,2.5,0.9c0.5,0.4,0.8,0.9,1,1.4c1.7,3.2,3.4,6.3,5.7,9.1
			c0.8,1,1.7,1.9,2.7,2.8c0.8,0.7,1.7,1.4,2.7,1.9c1,0.5,2,0.9,3,1.4c2.3,1.1,2,4,2,4.4c0,1.7,0,3.5,0,5.2c0,0.4-0.2,0.9-0.5,1.2
			c-0.2,0.2-0.6,0.3-0.9,0.3c-13.2,0-18.5,0-31.7,0c-1.2,0-2.4,0-3.6,0c-1.2-0.4-2.3-1-3.1-1.9c-1-0.9-1.6-2.3-1.8-3.6
			c-0.1-0.6-0.1-1.2-0.1-1.8c0-2.9,0-5.7,0-8.6c0-1.9,0.1-3.8,0.5-5.6c0.3-1.4,0.8-2.8,1.5-4c0.7-1.1,1.7-2.1,2.9-2.6
			c0.8-0.4,1.7-0.5,2.6-0.5c1.7,0,3.4,0,5,0 M4.3,4.2c-0.9,0-1.8,0.7-2,1.5c-0.5,1.5-1,3-1.5,4.5c-0.1,0.4-0.1,0.9,0.2,1.2
			c0.3,0.3,0.7,0.3,1.1,0.3c5.4,0,10.8,0,16.2,0c0.3,0,0.7-0.1,1-0.3c0.4-0.3,0.5-0.8,0.4-1.2c-0.2-1.5-0.4-3-0.6-4.5
			c-0.1-0.9-0.9-1.6-1.8-1.5C12.9,4.2,8.6,4.3,4.3,4.2z M26.4,12.3c0,0.7,0,1.3,0,2c0.1,2.4,0.1,4.9,0.2,7.3c0.9,0.8,2,1.4,3,2
			c0-0.7-0.1-1.4-0.1-2c-0.1-0.7,0-1.5-0.1-2.2c0-0.6,0-1.2-0.1-1.8c0-0.6,0-1.2-0.1-1.7C28.4,14.7,27.3,13.5,26.4,12.3z M30.5,20.7
			c0.1,0.7,0,1.4,0.1,2c0,0.4,0,0.8,0,1.2c0,0.1,0.1,0.1,0.2,0.1c0.9,0.3,1.9,0.7,2.9,0.9c-0.1-0.6,0-1.2-0.1-1.8
			c-0.1-0.7,0-1.3-0.1-2c0-0.7,0-1.4-0.1-2c-1.1-0.7-2.1-1.4-3-2.3C30.5,18.2,30.5,19.5,30.5,20.7z M2.6,18.6
			c-0.9,0.2-1.7,1-1.8,1.9c-0.1,0.9,0.4,1.9,1.2,2.3c0.6,0.3,1.4,0.3,2,0.1c0.6-0.3,1-0.8,1.3-1.4c0.3-0.9-0.1-1.9-0.8-2.5
			C4,18.6,3.2,18.4,2.6,18.6z M17.6,18.6c-0.8,0.2-1.4,0.8-1.7,1.5c-0.2,0.7-0.1,1.4,0.3,2c0.6,0.8,1.7,1.2,2.6,0.9
			c0.7-0.2,1.2-0.8,1.4-1.4c0.3-0.9,0-2-0.8-2.5C19,18.6,18.2,18.4,17.6,18.6z M34.7,25.3c1,0.2,2,0.4,3,0.6c0-0.3,0-0.6,0-0.8
			c-0.1-0.7,0-1.3-0.1-2c0-0.6,0-1.2-0.1-1.9c-1-0.4-2-0.9-3-1.4C34.6,21.6,34.6,23.4,34.7,25.3z"/>
	</g>
	<path class="st1" d="M2,31.9c2,0,4,0,6,0c0,0.5,0,1,0,1.5c2.8,0,5.7,0,8.5,0c0-0.5,0-1,0-1.5c10.4,0,12.5,0,22.8,0
		c0,0.6,0,1.3,0,1.9c0,0.1-0.1,0.1-0.2,0.1c-8.9,1-9.7,2-18.6,3c-7.3,0-14.7,0-22.1,0c0-1.2,0-2.3,0-3.5c1.2,0,2.3,0,3.5,0
		C2,32.9,2,32.4,2,31.9z"/>
</g>
<g>
	<g>
		<circle class="st4" cx="18.8" cy="19.3" r="16.1"/>
	</g>
	<path class="st5" d="M26.5,23.8c0,0.2,0,0.5-0.2,0.7l-2.2,2.1c-0.1,0.1-0.2,0.2-0.4,0.3c-0.2,0.1-0.3,0.1-0.5,0.1c0,0,0,0-0.1,0
		c-0.1,0-0.1,0-0.2,0c-0.2,0-0.5,0-1-0.1c-0.5-0.1-1-0.2-1.7-0.5c-0.7-0.3-1.4-0.7-2.3-1.2c-0.8-0.6-1.7-1.3-2.7-2.3
		c-0.8-0.7-1.4-1.5-1.9-2.2c-0.5-0.7-0.9-1.3-1.2-1.9c-0.3-0.6-0.5-1.1-0.7-1.6c-0.2-0.5-0.3-0.9-0.3-1.2c-0.1-0.3-0.1-0.6-0.1-0.8
		c0-0.2,0-0.3,0-0.3c0-0.2,0.1-0.3,0.1-0.5c0.1-0.2,0.2-0.3,0.3-0.4l2.2-2.2c0.2-0.2,0.3-0.2,0.5-0.2c0.1,0,0.3,0,0.4,0.1
		c0.1,0.1,0.2,0.2,0.3,0.3l1.7,3.3c0.1,0.2,0.1,0.4,0.1,0.6c0,0.2-0.1,0.4-0.3,0.5l-0.8,0.8c0,0,0,0.1-0.1,0.1c0,0,0,0.1,0,0.1
		c0,0.2,0.1,0.5,0.3,0.8c0.1,0.3,0.3,0.6,0.6,1c0.3,0.4,0.7,0.8,1.2,1.3c0.5,0.5,0.9,0.9,1.3,1.2c0.4,0.3,0.7,0.5,1,0.6
		c0.3,0.1,0.5,0.2,0.6,0.2l0.2,0c0,0,0.1,0,0.1,0c0,0,0.1,0,0.1-0.1l0.9-0.9c0.2-0.2,0.4-0.3,0.7-0.3c0.2,0,0.3,0,0.4,0.1h0l3.1,1.9
		C26.3,23.4,26.4,23.5,26.5,23.8z"/>
</g>
</svg>
