<?xml version="1.0" encoding="UTF-8"?>
<svg width="25px" height="26px" viewBox="0 0 25 26" version="1.1" xmlns="http://www.w3.org/2000/svg" xmlns:xlink="http://www.w3.org/1999/xlink">
    <!-- Generator: Sketch 57.1 (83088) - https://sketch.com -->
    <title>noun_design_43765</title>
    <desc>Created with Sketch.</desc>
    <g id="Cerrado" stroke="none" stroke-width="1" fill="none" fill-rule="evenodd">
        <g id="Home-desplegado-2" transform="translate(-568.000000, -3126.000000)" fill="#000000" fill-rule="nonzero" stroke="#FFFFFF" stroke-width="0.5">
            <g id="Categories" transform="translate(221.000000, 2784.000000)">
                <g id="noun_design_43765" transform="translate(347.000000, 343.000000)">
                    <path d="M24.5689655,2.02861413 C24.5689655,1.88486562 24.5115711,1.74645101 24.4077784,1.64324012 L22.9149876,0.158816764 C22.6993563,-0.0529389213 22.3555263,-0.0529389213 22.1425769,0.158816764 L21.2666418,1.02717509 L21.0046122,0.766614254 C20.8517393,0.611931259 20.6417401,0.527922392 20.4261088,0.527922392 C20.2077955,0.527922392 20.0002102,0.611931259 19.8476054,0.766614254 L16.586316,4.00962324 L6.37601278,4.00962324 L6.37601278,1.09758252 C6.37601278,0.647134975 6.01045872,0.283363244 5.55720386,0.283363244 C5.1042172,0.283363244 4.73839493,0.647134975 4.73839493,1.09758252 L4.73839493,4.00962324 L1.81020762,4.00962324 C1.35722096,4.00962324 0.991398697,4.37339497 0.991398697,4.82384252 C0.991398697,5.27429006 1.35695276,5.6380618 1.81020762,5.6380618 L4.73866313,5.6380618 L4.73866313,15.7908668 L3.30326668,17.2211511 L3.24855426,17.2726232 C3.1694358,17.3512982 3.10667744,17.4435746 3.06564312,17.5411849 L0.511055826,22.8332102 C0.360864866,23.1452431 0.426305213,23.5170157 0.671974711,23.7613081 C0.827529633,23.9186581 1.03752878,24 1.2504781,24 C1.37063087,24 1.49051544,23.9727971 1.60530424,23.921325 L6.97355824,21.3594546 C7.05562688,21.3186503 7.13179515,21.2671782 7.19750369,21.1994377 L8.69029455,19.7150144 L18.8946974,19.7150144 L18.8946974,22.6270551 C18.8946974,23.0775026 19.2632017,23.4412744 19.7135064,23.4412744 C20.166493,23.4412744 20.5323153,23.0775026 20.5323153,22.6270551 L20.5323153,19.7150144 L23.4607708,19.7150144 C23.9137575,19.7150144 24.2795797,19.3512426 24.2795797,18.9007951 C24.2795797,18.4503475 23.9140257,18.0865758 23.4607708,18.0865758 L20.5325835,18.0865758 L20.5325835,7.93937138 L23.7965549,4.69369545 C24.1159789,4.37606192 24.1159789,3.86054083 23.7965549,3.54290731 L23.5345253,3.28234647 L24.4077784,2.4113212 C24.5115711,2.31077725 24.5689655,2.17236264 24.5689655,2.02861413 Z M6.37601278,5.6380618 L14.94843,5.6380618 L6.37601278,14.1624283 L6.37601278,5.6380618 Z M2.9972526,21.4490641 L4.18992973,18.9768031 L5.48639955,20.2630722 L2.9972526,21.4490641 Z M10.3279124,18.0865758 L18.8949656,9.56780994 L18.8949656,18.0868425 L10.3279124,18.0868425 L10.3279124,18.0865758 Z M19.135003,7.0275418 L7.8307195,18.2711286 C7.81167744,18.290064 7.79236717,18.3063323 7.7733251,18.3255344 L6.42777503,19.6662092 L4.79310735,18.0407043 L17.5030173,5.39936993 L20.4261088,2.49266311 L22.0610447,4.11816803 L19.135003,7.0275418 Z M22.8412331,2.43292348 L22.1205847,1.71364755 L22.5271731,1.30933821 L23.2505035,2.02861413 L22.8412331,2.43292348 Z" id="Shape"></path>
                </g>
            </g>
        </g>
    </g>
</svg>