<?xml version="1.0" encoding="UTF-8"?>
<svg width="25px" height="20px" viewBox="0 0 25 20" version="1.1" xmlns="http://www.w3.org/2000/svg" xmlns:xlink="http://www.w3.org/1999/xlink">
    <!-- Generator: Sketch 57.1 (83088) - https://sketch.com -->
    <title>noun_Camera_2846835</title>
    <desc>Created with Sketch.</desc>
    <g id="Cerrado" stroke="none" stroke-width="1" fill="none" fill-rule="evenodd">
        <g id="Home-desplegado-2" transform="translate(-243.000000, -3127.000000)" fill="#000000" fill-rule="nonzero">
            <g id="Categories" transform="translate(221.000000, 2784.000000)">
                <g id="noun_Camera_2846835" transform="translate(22.000000, 343.000000)">
                    <g id="Group" transform="translate(0.431034, 0.000000)">
                        <path d="M22.6009647,6.42439024 C22.6009647,6.78292683 22.6009647,7.13902439 22.6009647,7.49756098 C22.6009647,8.35365854 22.6009647,9.20731707 22.6009647,10.0634146 C22.6009647,11.0853659 22.6009647,12.1073171 22.6009647,13.1292683 C22.6009647,14 22.6009647,14.8731707 22.6009647,15.7439024 C22.6009647,16.1341463 22.6034843,16.5243902 22.6009647,16.9146341 C22.6009647,17.0170732 22.5934058,17.1195122 22.5808077,17.2219512 C22.5908862,17.1560976 22.598445,17.0926829 22.6085235,17.0268293 C22.5782881,17.2341463 22.5228565,17.4341463 22.4422288,17.6268293 C22.467425,17.5682927 22.4926211,17.5097561 22.5178173,17.4512195 C22.4573465,17.5878049 22.3842776,17.7219512 22.2986106,17.8463415 C22.2809733,17.8731707 22.2608164,17.897561 22.243179,17.9243902 C22.1726298,18.0243902 22.3792384,17.7658537 22.2608164,17.902439 C22.2154632,17.9560976 22.1675905,18.004878 22.1171982,18.0536585 C22.0668058,18.102439 22.0138939,18.1487805 21.9609819,18.1926829 C21.8198834,18.3073171 22.0869628,18.1073171 21.9836585,18.1756098 C21.9559427,18.1926829 21.9307465,18.2121951 21.9030307,18.2292683 C21.7745303,18.3121951 21.638471,18.3829268 21.4948528,18.4414634 C21.5553236,18.4170732 21.6157944,18.3926829 21.6762652,18.3682927 C21.4772155,18.4463415 21.2706069,18.5 21.0564394,18.5292683 C21.1244691,18.5195122 21.1899791,18.5121951 21.2580088,18.502439 C21.0186452,18.5317073 20.7742423,18.5219512 20.5323591,18.5219512 C20.1090634,18.5219512 19.6857678,18.5219512 19.2649917,18.5219512 C18.625009,18.5219512 17.9850263,18.5219512 17.3450436,18.5219512 C16.558923,18.5219512 15.7702829,18.5219512 14.9841624,18.5219512 C14.1224534,18.5219512 13.263264,18.5219512 12.401555,18.5219512 C11.5272479,18.5219512 10.6554604,18.5219512 9.78115326,18.5219512 C8.96731697,18.5219512 8.15600029,18.5219512 7.34216399,18.5219512 C6.65934778,18.5219512 5.97905118,18.5219512 5.29623497,18.5219512 C4.81498812,18.5219512 4.33122165,18.5219512 3.8499748,18.5219512 C3.63832697,18.5219512 3.42667914,18.5219512 3.2125117,18.5219512 C3.10416817,18.5219512 2.99582463,18.5146341 2.88496149,18.502439 C2.95299115,18.5121951 3.01850119,18.5195122 3.08653085,18.5292683 C2.8723634,18.5 2.66575481,18.4463415 2.46670506,18.3682927 C2.52717587,18.3926829 2.58764668,18.4170732 2.64811749,18.4414634 C2.50701893,18.3829268 2.36844,18.3121951 2.23993953,18.2292683 C2.21222374,18.2121951 2.18702757,18.1926829 2.15931178,18.1756098 C2.05600749,18.1073171 2.32308689,18.3073171 2.18198834,18.1926829 C2.12655676,18.1487805 2.07616442,18.102439 2.02577208,18.0536585 C1.97537974,18.004878 1.92750702,17.9536585 1.88215391,17.902439 C1.76373191,17.7658537 1.97034051,18.0243902 1.89979123,17.9243902 C1.88215391,17.897561 1.86199698,17.8731707 1.84435966,17.8463415 C1.75869268,17.7219512 1.68562379,17.5902439 1.62515298,17.4512195 C1.65034915,17.5097561 1.67554532,17.5682927 1.70074149,17.6268293 C1.62011374,17.4341463 1.56468217,17.2341463 1.53444676,17.0268293 C1.54452523,17.0926829 1.55208408,17.1560976 1.56216255,17.2219512 C1.50421136,16.804878 1.53696638,16.3707317 1.53696638,15.9512195 C1.53696638,15.1073171 1.53696638,14.2634146 1.53696638,13.4195122 C1.53696638,12.3780488 1.53696638,11.3365854 1.53696638,10.295122 C1.53696638,9.40731707 1.53696638,8.5195122 1.53696638,7.62926829 C1.53696638,7.22682927 1.53444676,6.82682927 1.53696638,6.42439024 C1.53696638,6.32195122 1.54452523,6.2195122 1.55712332,6.11707317 C1.54704485,6.18292683 1.539486,6.24634146 1.52940753,6.31219512 C1.55964293,6.10487805 1.61507451,5.90487805 1.69570225,5.71219512 C1.67050608,5.77073171 1.64530991,5.82926829 1.62011374,5.88780488 C1.68058455,5.75121951 1.75365344,5.61707317 1.83932042,5.49268293 C1.85695774,5.46585366 1.87711468,5.44146341 1.894752,5.41463415 C1.96530127,5.31463415 1.75869268,5.57317073 1.87711468,5.43658537 C1.92246778,5.38292683 1.97034051,5.33414634 2.02073285,5.28536585 C2.07112519,5.23658537 2.12403715,5.1902439 2.1769491,5.14634146 C2.31804766,5.03170732 2.05096825,5.23170732 2.15427255,5.16341463 C2.18198834,5.14634146 2.20718451,5.12682927 2.2349003,5.1097561 C2.36340076,5.02682927 2.49946008,4.95609756 2.64307825,4.89756098 C2.58260744,4.92195122 2.52213664,4.94634146 2.46166583,4.97073171 C2.66071557,4.89268293 2.86732417,4.83902439 3.08149161,4.8097561 C3.01346195,4.8195122 2.94795191,4.82682927 2.87992225,4.83658537 C3.28054136,4.7902439 3.69879778,4.81707317 4.09941689,4.81707317 C4.6789288,4.81707317 5.26096033,4.81707317 5.84047225,4.81707317 C5.97653157,4.81707317 6.11259089,4.81707317 6.24865021,4.81707317 C6.5887985,4.81707317 6.87855446,4.58780488 6.97681952,4.2804878 C7.21618314,3.53414634 7.45554676,2.78780488 7.69491037,2.04390244 C7.73522425,1.9195122 7.77049888,1.7902439 7.82089122,1.66829268 C7.79569505,1.72682927 7.77049888,1.78536585 7.74530271,1.84390244 C7.7730185,1.7804878 7.80577352,1.7195122 7.84356778,1.66097561 C7.85616586,1.64146341 7.86876395,1.62439024 7.88388165,1.60487805 C7.85868548,1.63658537 7.83348931,1.66829268 7.80829314,1.7 C7.81333237,1.67317073 7.87128356,1.63170732 7.88892088,1.61219512 C7.91411705,1.58780488 7.93931322,1.56585366 7.96450939,1.54390244 C8.02246059,1.49268293 7.79317544,1.66097561 7.92167591,1.57804878 C7.98466633,1.53658537 8.05017637,1.50487805 8.11820603,1.47317073 C8.05773522,1.49756098 7.99726442,1.52195122 7.93679361,1.54634146 C8.03505867,1.50731707 8.13332373,1.4804878 8.23914765,1.46341463 C8.17111799,1.47317073 8.10560795,1.4804878 8.03757829,1.4902439 C8.33237348,1.45121951 8.64480599,1.47804878 8.9421208,1.47804878 C9.55942697,1.47804878 10.1767331,1.47804878 10.7915197,1.47804878 C12.197466,1.47804878 13.6059319,1.47804878 15.0118782,1.47804878 C15.3671442,1.47804878 15.7400475,1.44634146 16.0927939,1.4902439 C16.0247642,1.4804878 15.9592542,1.47317073 15.8912245,1.46341463 C15.9945288,1.4804878 16.0953135,1.50731707 16.1935786,1.54634146 C16.1331078,1.52195122 16.072637,1.49756098 16.0121662,1.47317073 C16.0751566,1.5 16.1356274,1.53170732 16.1935786,1.56829268 C16.322079,1.64878049 16.1784609,1.53170732 16.1507451,1.53414634 C16.170902,1.53414634 16.223814,1.59756098 16.2389317,1.61219512 C16.2641279,1.63658537 16.2868044,1.66097561 16.309481,1.68780488 C16.3623929,1.74390244 16.1885393,1.52195122 16.2742063,1.64878049 C16.3170398,1.71219512 16.3497948,1.77560976 16.3800302,1.84390244 C16.3548341,1.78536585 16.3296379,1.72682927 16.3044417,1.66829268 C16.4253833,1.96341463 16.5034915,2.27560976 16.6017565,2.57804878 C16.7478943,3.03658537 16.8965517,3.49756098 17.0426895,3.95609756 C17.0779641,4.06341463 17.1132388,4.17317073 17.1459938,4.2804878 C17.2442589,4.5902439 17.5340148,4.81707317 17.8741631,4.81707317 C18.8064214,4.81707317 19.7386797,4.81707317 20.6684184,4.81707317 C20.8599093,4.81707317 21.0514002,4.81463415 21.2454107,4.83658537 C21.177381,4.82682927 21.111871,4.8195122 21.0438413,4.8097561 C21.2580088,4.83902439 21.4646174,4.89268293 21.6636671,4.97073171 C21.6031963,4.94634146 21.5427255,4.92195122 21.4822547,4.89756098 C21.6233533,4.95609756 21.7619322,5.02682927 21.8904327,5.1097561 C21.9181484,5.12682927 21.9433446,5.14634146 21.9710604,5.16341463 C22.0743647,5.23170732 21.8072853,5.03170732 21.9483838,5.14634146 C22.0038154,5.1902439 22.0542078,5.23658537 22.1046001,5.28536585 C22.1549924,5.33414634 22.2028652,5.38536585 22.2482183,5.43658537 C22.3666403,5.57317073 22.1600317,5.31463415 22.230581,5.41463415 C22.2482183,5.44146341 22.2683752,5.46585366 22.2860125,5.49268293 C22.3716795,5.61707317 22.4447484,5.74878049 22.5052192,5.88780488 C22.480023,5.82926829 22.4548269,5.77073171 22.4296307,5.71219512 C22.5102584,5.90487805 22.56569,6.10487805 22.5959254,6.31219512 C22.585847,6.24634146 22.5782881,6.18292683 22.5682096,6.11707317 C22.5934058,6.2195122 22.6009647,6.32195122 22.6009647,6.42439024 C22.6034843,6.80731707 22.9461522,7.17317073 23.3568498,7.15609756 C23.7650277,7.13902439 24.1152545,6.83414634 24.1127349,6.42439024 C24.1076956,5.6195122 23.7801454,4.83902439 23.1955943,4.26585366 C22.6135627,3.69512195 21.8047657,3.36829268 20.9783313,3.35609756 C20.2526816,3.34634146 19.5270319,3.35609756 18.8039018,3.35609756 C18.4990281,3.35609756 18.1916349,3.35609756 17.8867612,3.35609756 C18.1286444,3.53414634 18.3730473,3.71463415 18.6149305,3.89268293 C18.4687927,3.43414634 18.3201353,2.97560976 18.1739976,2.5195122 C18.0807717,2.22926829 17.9875459,1.93902439 17.8943201,1.64878049 C17.8136923,1.4 17.743143,1.14390244 17.5970053,0.92195122 C17.2316608,0.36097561 16.6017565,0.0219512195 15.9189403,0.0146341463 C15.8433518,0.0146341463 15.7702829,0.0146341463 15.6946944,0.0146341463 C15.2487222,0.0146341463 14.80275,0.0146341463 14.3567778,0.0146341463 C12.9835865,0.0146341463 11.6129148,0.0146341463 10.2397236,0.0146341463 C9.71816284,0.0146341463 9.19912173,0.0146341463 8.67756101,0.0146341463 C8.54654093,0.0146341463 8.41804046,0.0146341463 8.28702037,0.0146341463 C7.93679361,0.0146341463 7.6092434,0.087804878 7.29681088,0.23902439 C6.8105248,0.475609756 6.48045497,0.924390244 6.3217191,1.41707317 C6.25368944,1.62926829 6.18565978,1.83902439 6.11763012,2.05121951 C5.93369808,2.62682927 5.74724642,3.20243902 5.56331438,3.77804878 C5.55071629,3.81707317 5.53811821,3.85609756 5.52552012,3.89268293 C5.76740335,3.71463415 6.01180621,3.53414634 6.25368944,3.35609756 C5.37182348,3.35609756 4.48743791,3.35609756 3.60557195,3.35609756 C3.08149161,3.35609756 2.55741127,3.36585366 2.06356634,3.56341463 C1.60499604,3.74390244 1.18422,3.99756098 0.854150169,4.36097561 C0.52408034,4.72195122 0.274638255,5.14146341 0.141098553,5.60731707 C-0.0226765532,6.17317073 0.0251961702,6.80243902 0.0251961702,7.3902439 C0.0251961702,8.32682927 0.0251961702,9.26585366 0.0251961702,10.202439 C0.0251961702,11.3317073 0.0251961702,12.4634146 0.0251961702,13.5926829 C0.0251961702,14.4707317 0.0251961702,15.3463415 0.0251961702,16.2243902 C0.0251961702,16.4341463 0.0251961702,16.6414634 0.0251961702,16.8512195 C0.0251961702,17.4170732 0.158735872,17.9731707 0.45605068,18.4658537 C0.708012382,18.8829268 1.06075876,19.2292683 1.47649557,19.497561 C1.89979123,19.7707317 2.3835577,19.9121951 2.88496149,19.9707317 C3.04873659,19.9902439 3.20747246,19.9902439 3.37124757,19.9902439 C3.88272983,19.9902439 4.39169246,19.9902439 4.90317472,19.9902439 C5.80267799,19.9902439 6.70218127,19.9902439 7.60420416,19.9902439 C8.72543373,19.9902439 9.84666331,19.9902439 10.9678929,19.9902439 C12.1420344,19.9902439 13.3161759,19.9902439 14.4877979,19.9902439 C15.546037,19.9902439 16.6042762,19.9902439 17.6599957,19.9902439 C18.4335181,19.9902439 19.2070405,19.9902439 19.980563,19.9902439 C20.3005543,19.9902439 20.6205457,19.9926829 20.9430567,19.9902439 C21.8022461,19.9853659 22.6563962,19.6439024 23.2459866,19.0341463 C23.8053416,18.4560976 24.1152545,17.697561 24.1177741,16.9073171 C24.1202937,16.404878 24.1177741,15.902439 24.1177741,15.4 C24.1177741,14.3780488 24.1177741,13.3536585 24.1177741,12.3317073 C24.1177741,11.2243902 24.1177741,10.1195122 24.1177741,9.01219512 C24.1177741,8.25853659 24.1177741,7.50487805 24.1177741,6.75121951 C24.1177741,6.64390244 24.1177741,6.53414634 24.1177741,6.42682927 C24.1177741,6.04390244 23.7700669,5.67804878 23.361889,5.69512195 C22.9461522,5.7097561 22.6009647,6.01219512 22.6009647,6.42439024 Z" id="Path"></path>
                        <path d="M16.4707364,11.6707317 C16.4707364,11.897561 16.4556187,12.1243902 16.4228637,12.3487805 C16.4329422,12.2829268 16.440501,12.2195122 16.4505795,12.1536585 C16.3875891,12.5902439 16.2691671,13.0146341 16.0927939,13.4195122 C16.1179901,13.3609756 16.1431862,13.302439 16.1683824,13.2439024 C16.0373623,13.5414634 15.8786264,13.8243902 15.6921748,14.0926829 C15.6493413,14.1536585 15.6039882,14.2146341 15.5586351,14.2756098 C15.4477719,14.4195122 15.6543805,14.1609756 15.5762724,14.2536585 C15.5561155,14.2780488 15.5359585,14.302439 15.513282,14.3292683 C15.4074581,14.4536585 15.2965949,14.5707317 15.1806925,14.6829268 C15.0647902,14.795122 14.9413289,14.902439 14.8153481,15.004878 C14.7901519,15.0243902 14.7649557,15.0439024 14.7372399,15.0658537 C14.6389749,15.1414634 14.9085739,14.9414634 14.7599165,15.0487805 C14.6969261,15.0926829 14.6339356,15.1365854 14.5709452,15.1780488 C14.2937873,15.3585366 14.0015118,15.5121951 13.6941185,15.6390244 C13.7545893,15.6146341 13.8150601,15.5902439 13.8755309,15.5658537 C13.4572745,15.7365854 13.0188611,15.8512195 12.5678497,15.9121951 C12.6358793,15.902439 12.7013894,15.895122 12.769419,15.8853659 C12.3032899,15.9439024 11.8346411,15.9439024 11.368512,15.8853659 C11.4365416,15.895122 11.5020517,15.902439 11.5700813,15.9121951 C11.1190699,15.8512195 10.6806565,15.7365854 10.2624001,15.5658537 C10.3228709,15.5902439 10.3833417,15.6146341 10.4438125,15.6390244 C10.1364193,15.5121951 9.84414369,15.3585366 9.56698582,15.1780488 C9.50399539,15.1365854 9.44100497,15.0926829 9.37801454,15.0487805 C9.22935714,14.9414634 9.49643654,15.1414634 9.40069109,15.0658537 C9.37549492,15.0463415 9.35029875,15.0268293 9.32258297,15.004878 C9.1940825,14.902439 9.07314088,14.795122 8.9572385,14.6829268 C8.84133612,14.5707317 8.73047297,14.4512195 8.62464905,14.3292683 C8.60449212,14.304878 8.58433518,14.2804878 8.56165863,14.2536585 C8.4835505,14.1585366 8.6901591,14.4195122 8.57929595,14.2756098 C8.53394284,14.2146341 8.48858973,14.1536585 8.44575625,14.0926829 C8.25930459,13.8243902 8.10056871,13.5414634 7.96954863,13.2439024 C7.9947448,13.302439 8.01994097,13.3609756 8.04513714,13.4195122 C7.86876395,13.0146341 7.75034195,12.5902439 7.68735152,12.1536585 C7.69742999,12.2195122 7.70498884,12.2829268 7.71506731,12.3487805 C7.6545965,11.897561 7.6545965,11.4439024 7.71506731,10.9926829 C7.70498884,11.0585366 7.69742999,11.1219512 7.68735152,11.1878049 C7.75034195,10.7512195 7.86876395,10.3268293 8.04513714,9.92195122 C8.01994097,9.9804878 7.9947448,10.0390244 7.96954863,10.097561 C8.10056871,9.8 8.25930459,9.51707317 8.44575625,9.24878049 C8.48858973,9.18780488 8.53394284,9.12682927 8.57929595,9.06585366 C8.6901591,8.92195122 8.4835505,9.1804878 8.56165863,9.08780488 C8.58181556,9.06341463 8.6019725,9.03902439 8.62464905,9.01219512 C8.73047297,8.88780488 8.84133612,8.77073171 8.9572385,8.65853659 C9.07314088,8.54634146 9.19660212,8.43902439 9.32258297,8.33658537 C9.34777914,8.31707317 9.37297531,8.29756098 9.40069109,8.27560976 C9.49895616,8.2 9.22935714,8.4 9.37801454,8.29268293 C9.44100497,8.24878049 9.50399539,8.20487805 9.56698582,8.16341463 C9.84414369,7.98292683 10.1364193,7.82926829 10.4438125,7.70243902 C10.3833417,7.72682927 10.3228709,7.75121951 10.2624001,7.77560976 C10.6806565,7.60487805 11.1190699,7.4902439 11.5700813,7.42926829 C11.5020517,7.43902439 11.4365416,7.44634146 11.368512,7.45609756 C11.8346411,7.39756098 12.3032899,7.39756098 12.769419,7.45609756 C12.7013894,7.44634146 12.6358793,7.43902439 12.5678497,7.42926829 C13.0188611,7.4902439 13.4572745,7.60487805 13.8755309,7.77560976 C13.8150601,7.75121951 13.7545893,7.72682927 13.6941185,7.70243902 C14.0015118,7.82926829 14.2937873,7.98292683 14.5709452,8.16341463 C14.6339356,8.20487805 14.6969261,8.24878049 14.7599165,8.29268293 C14.9085739,8.4 14.6414945,8.2 14.7372399,8.27560976 C14.7624361,8.29512195 14.7876323,8.31463415 14.8153481,8.33658537 C14.9438485,8.43902439 15.0647902,8.54634146 15.1806925,8.65853659 C15.2965949,8.77073171 15.4074581,8.8902439 15.513282,9.01219512 C15.5334389,9.03658537 15.5535959,9.06097561 15.5762724,9.08780488 C15.6543805,9.18292683 15.4477719,8.92195122 15.5586351,9.06585366 C15.6039882,9.12682927 15.6493413,9.18780488 15.6921748,9.24878049 C15.8786264,9.51707317 16.0373623,9.8 16.1683824,10.097561 C16.1431862,10.0390244 16.1179901,9.9804878 16.0927939,9.92195122 C16.2691671,10.3268293 16.3875891,10.7512195 16.4505795,11.1878049 C16.440501,11.1219512 16.4329422,11.0585366 16.4228637,10.9926829 C16.4556187,11.2170732 16.4707364,11.4439024 16.4707364,11.6707317 C16.4732561,12.0536585 16.8184436,12.4195122 17.2266216,12.402439 C17.6347995,12.3853659 17.9850263,12.0804878 17.9825202,11.6707317 C17.9774674,10.5146341 17.6171622,9.34634146 16.9217479,8.40487805 C16.2011374,7.42682927 15.2210064,6.69756098 14.0569433,6.2804878 C11.7918076,5.47073171 9.08825858,6.17560976 7.5512922,7.97804878 C6.74753437,8.9195122 6.27132676,10.0439024 6.16802246,11.2634146 C6.0697574,12.4219512 6.37211144,13.6243902 6.99193723,14.6170732 C7.59160608,15.5780488 8.49362897,16.3878049 9.55186812,16.8536585 C10.7260096,17.3707317 12.0034555,17.5195122 13.2708228,17.2780488 C15.5964293,16.8341463 17.5239364,14.9170732 17.8892808,12.6463415 C17.9421928,12.3243902 17.9774674,12 17.9774674,11.6756098 C17.979987,11.2926829 17.6297603,10.9268293 17.2215823,10.9439024 C16.815924,10.9560976 16.4732561,11.2609756 16.4707364,11.6707317 Z" id="Path"></path>
                        <path d="M9.86933986,4.14634146 C10.3631848,4.14634146 10.8570297,4.14634146 11.3508747,4.14634146 C12.1420344,4.14634146 12.9357138,4.14634146 13.7268735,4.14634146 C13.9082859,4.14634146 14.0896984,4.14634146 14.2685912,4.14634146 C14.664171,4.14634146 15.0421136,3.8097561 15.0244763,3.41463415 C15.006839,3.01707317 14.6918868,2.68292683 14.2685912,2.68292683 C13.7747462,2.68292683 13.2809013,2.68292683 12.7870564,2.68292683 C11.9958966,2.68292683 11.2022173,2.68292683 10.4110575,2.68292683 C10.2296451,2.68292683 10.0482327,2.68292683 9.86933986,2.68292683 C9.47375999,2.68292683 9.09581744,3.0195122 9.11345475,3.41463415 C9.13109207,3.81219512 9.4460442,4.14634146 9.86933986,4.14634146 L9.86933986,4.14634146 Z" id="Path"></path>
                    </g>
                </g>
            </g>
        </g>
    </g>
</svg>