<?xml version="1.0" encoding="UTF-8"?>
<svg width="27px" height="31px" viewBox="0 0 27 31" version="1.1" xmlns="http://www.w3.org/2000/svg" xmlns:xlink="http://www.w3.org/1999/xlink">
    <!-- Generator: Sketch 57.1 (83088) - https://sketch.com -->
    <title>noun_Food_1869753</title>
    <desc>Created with Sketch.</desc>
    <g id="Cerrado" stroke="none" stroke-width="1" fill="none" fill-rule="evenodd">
        <g id="Home-desplegado-2" transform="translate(-893.000000, -3122.000000)" fill="#000000" fill-rule="nonzero">
            <g id="Categories" transform="translate(221.000000, 2784.000000)">
                <g id="noun_Food_1869753" transform="translate(672.000000, 338.000000)">
                    <g id="Group">
                        <path d="M6.49973077,19.1166667 C6.32574187,19.4159586 6.23304854,19.7551647 6.23076923,20.1009167 L6.23076923,20.15 C6.23072891,20.205484 6.23967035,20.2606123 6.25725,20.3132667 L7.29571154,23.4132667 C7.3311498,23.5180423 7.39961913,23.6086423 7.49094231,23.6716 L12.4615385,27.13585 L12.4615385,30.4833333 C12.4615385,30.7686805 12.694006,31 12.9807692,31 L18.6923077,31 C18.9790709,31 19.2115385,30.7686805 19.2115385,30.4833333 L19.2115385,26.5153333 L21.7111154,23.0335167 C21.773943,22.9459074 21.8077069,22.8409615 21.8076923,22.7333333 L21.8076923,20.6666667 C21.8058301,20.0708739 21.54398,19.5052653 21.0901154,19.1166667 L26.4807692,19.1166667 C26.7675325,19.1166667 27,18.8853471 27,18.6 L27,16.5333333 C27,16.2479862 26.7675325,16.0166667 26.4807692,16.0166667 L25.4423077,16.0166667 L25.4423077,14.4666667 C25.4343466,8.90228031 21.5528988,4.08601693 16.0961538,2.86956667 L16.0961538,2.58333333 C16.0961538,1.15659773 14.9338162,8.8817842e-16 13.5,8.8817842e-16 C12.0661838,8.8817842e-16 10.9038462,1.15659773 10.9038462,2.58333333 L10.9038462,2.86956667 C5.44710119,4.08601693 1.56565338,8.90228031 1.55769231,14.4666667 L1.55769231,16.0166667 L0.519230769,16.0166667 C0.232467534,16.0166667 0,16.2479862 0,16.5333333 L0,18.6 C0,18.8853471 0.232467534,19.1166667 0.519230769,19.1166667 L6.49973077,19.1166667 Z M20.7692308,22.568 L18.2696538,26.0498167 C18.2068262,26.137426 18.1730623,26.2423719 18.1730769,26.35 L18.1730769,29.9666667 L13.5,29.9666667 L13.5,26.8666667 C13.4999059,26.6980696 13.4171489,26.5401228 13.2782885,26.4435167 L8.22669231,22.9245 L7.26923077,20.06785 C7.28796259,19.5373727 7.72544575,19.1168957 8.25888462,19.1166667 C8.7019586,19.1219629 9.08981196,19.4140354 9.21530769,19.8369 L9.91003846,21.3931 C9.95893161,21.5027783 10.0446624,21.5921045 10.1525192,21.64575 L13.2679038,23.19575 C13.3399933,23.2315019 13.4194531,23.2500748 13.5,23.25 L16.0961538,23.25 C16.1764945,23.2508783 16.2559439,23.2331921 16.32825,23.1983333 L18.4051731,22.165 C18.5820591,22.0770499 18.6933871,21.8967599 18.6923077,21.7 L18.6923077,20.6666667 C18.6923077,20.0959724 19.1572428,19.6333333 19.7307692,19.6333333 C20.3042957,19.6333333 20.7692308,20.0959724 20.7692308,20.6666667 L20.7692308,22.568 Z M17.6538462,20.6666667 L17.6538462,21.3807 L15.9736154,22.2166667 L13.6225385,22.2166667 L10.7833846,20.8041 L10.1826346,19.46335 C10.1418592,19.3431422 10.0897019,19.2270598 10.0268654,19.1166667 L18.3714231,19.1166667 C17.9175585,19.5052653 17.6557084,20.0708739 17.6538462,20.6666667 Z M11.9423077,2.58333333 C11.9423077,1.72729197 12.6397103,1.03333333 13.5,1.03333333 C14.3602897,1.03333333 15.0576923,1.72729197 15.0576923,2.58333333 L11.9423077,2.58333333 Z M2.59615385,14.4666667 C2.59615385,8.47437713 7.47797205,3.61666667 13.5,3.61666667 C19.5220279,3.61666667 24.4038462,8.47437713 24.4038462,14.4666667 L24.4038462,16.0166667 L2.59615385,16.0166667 L2.59615385,14.4666667 Z M1.03846154,17.05 L25.9615385,17.05 L25.9615385,18.0833333 L1.03846154,18.0833333 L1.03846154,17.05 Z" id="Shape"></path>
                        <path d="M4.968,12.21245 L5.93584615,12.58755 C7.10792452,9.58869525 9.5598278,7.26401696 12.6266538,6.24391667 L12.2964231,5.26225 C8.93722201,6.38052032 6.25177456,8.92737066 4.968,12.21245 L4.968,12.21245 Z" id="Path"></path>
                        <path d="M4.35063462,14.37315 L5.37196154,14.5601833 C5.43323077,14.229 5.51059615,13.8967833 5.60301923,13.5738667 L4.6035,13.2928 C4.50276923,13.6467167 4.41761538,14.01045 4.35063462,14.37315 Z" id="Path"></path>
                    </g>
                </g>
            </g>
        </g>
    </g>
</svg>