<?xml version="1.0" encoding="UTF-8"?>
<svg width="27px" height="27px" viewBox="0 0 27 27" version="1.1" xmlns="http://www.w3.org/2000/svg" xmlns:xlink="http://www.w3.org/1999/xlink">
    <!-- Generator: Sketch 57.1 (83088) - https://sketch.com -->
    <title>noun_CV_2547707</title>
    <desc>Created with Sketch.</desc>
    <g id="Cerrado" stroke="none" stroke-width="1" fill="none" fill-rule="evenodd">
        <g id="Home-desplegado-2" transform="translate(-893.000000, -3046.000000)" fill="#000000" fill-rule="nonzero">
            <g id="Categories" transform="translate(221.000000, 2784.000000)">
                <g id="noun_CV_2547707" transform="translate(672.000000, 262.000000)">
                    <path d="M25.2,0 L1.8,0 C0.807,0 0,0.807 0,1.8 L0,25.2 C0,26.193 0.807,27 1.8,27 L25.2,27 C26.193,27 27,26.193 27,25.2 L27,1.8 C27,0.807 26.193,0 25.2,0 Z M1.2,1.8 C1.2,1.47 1.47,1.2 1.8,1.2 L14.352,1.2 L12.912,3 L1.2,3 L1.2,1.8 Z M25.8,25.2 C25.8,25.53 25.53,25.8 25.2,25.8 L1.8,25.8 C1.47,25.8 1.2,25.53 1.2,25.2 L1.2,7.2 L25.8,7.2 L25.8,25.2 Z M25.8,6 L1.2,6 L1.2,4.2 L13.2,4.2 C13.383,4.2 13.554,4.116 13.668,3.975 L15.888,1.2 L25.2,1.2 C25.53,1.2 25.8,1.47 25.8,1.8 L25.8,6 Z M15.6,20.1 L20.4,20.1 C20.73,20.1 21,19.83 21,19.5 L21,18.9 C21,17.832 20.436,16.896 19.593,16.362 C19.908,15.996 20.1,15.519 20.1,15 C20.1,13.842 19.158,12.9 18,12.9 C16.842,12.9 15.9,13.842 15.9,15 C15.9,15.519 16.092,15.996 16.407,16.362 C15.564,16.896 15,17.832 15,18.9 L15,19.5 C15,19.83 15.27,20.1 15.6,20.1 Z M18,14.1 C18.495,14.1 18.9,14.505 18.9,15 C18.9,15.495 18.495,15.9 18,15.9 C17.505,15.9 17.1,15.495 17.1,15 C17.1,14.505 17.505,14.1 18,14.1 Z M18,17.1 C18.993,17.1 19.8,17.907 19.8,18.9 L16.2,18.9 C16.2,17.907 17.007,17.1 18,17.1 Z M6,13.5 C6,13.17 6.27,12.9 6.6,12.9 L12.6,12.9 C12.93,12.9 13.2,13.17 13.2,13.5 C13.2,13.83 12.93,14.1 12.6,14.1 L6.6,14.1 C6.27,14.1 6,13.83 6,13.5 Z M6,16.5 C6,16.17 6.27,15.9 6.6,15.9 L12.6,15.9 C12.93,15.9 13.2,16.17 13.2,16.5 C13.2,16.83 12.93,17.1 12.6,17.1 L6.6,17.1 C6.27,17.1 6,16.83 6,16.5 Z M6,19.5 C6,19.17 6.27,18.9 6.6,18.9 L12.6,18.9 C12.93,18.9 13.2,19.17 13.2,19.5 C13.2,19.83 12.93,20.1 12.6,20.1 L6.6,20.1 C6.27,20.1 6,19.83 6,19.5 Z" id="Shape"></path>
                </g>
            </g>
        </g>
    </g>
</svg>