<?xml version="1.0" encoding="UTF-8"?>
<svg width="27px" height="31px" viewBox="0 0 27 31" version="1.1" xmlns="http://www.w3.org/2000/svg" xmlns:xlink="http://www.w3.org/1999/xlink">
    <!-- Generator: Sketch 57.1 (83088) - https://sketch.com -->
    <title>noun_Business_2849287</title>
    <desc>Created with Sketch.</desc>
    <g id="Cerrado" stroke="none" stroke-width="1" fill="none" fill-rule="evenodd">
        <g id="Home-desplegado-2" transform="translate(-241.000000, -2886.000000)" fill="#000000" fill-rule="nonzero">
            <g id="Categories" transform="translate(221.000000, 2784.000000)">
                <g id="noun_Business_2849287" transform="translate(20.000000, 102.000000)">
                    <g id="Group">
                        <path d="M27,19.0804188 C27,18.9246073 26.9359113,18.775288 26.8205517,18.6714136 L13.6054646,5.79748691 C13.5029227,5.69361257 13.3619276,5.63518325 13.2145236,5.63518325 L8.222015,5.5313089 L8.09383763,5.49235602 C8.00411347,5.30408377 7.90157157,5.10931937 7.79902967,4.91455497 C6.28012781,2.15539267 3.67812716,0 1.87082622,0 C1.17866841,0 0.621096838,0.30513089 0.300653408,0.856963351 C-0.282553635,1.86324607 -0.00697228511,3.59015707 1.0376733,5.47937173 C1.68496903,6.65445026 2.56939289,7.77109948 3.53713205,8.65403141 L2.29381154,14.2113089 C2.2617672,14.3541361 2.28740267,14.5034555 2.35790023,14.6332984 L11.5289912,30.7078534 C11.637942,30.8961257 11.830208,31 12.0288829,31 C12.125016,31 12.2275579,30.9740314 12.317282,30.9220942 L16.7458102,28.3317277 L17.2008399,28.7796859 C17.3097907,28.8900524 17.4571947,28.9419895 17.5981898,28.9419895 C17.7520026,28.9419895 17.8994066,28.8835602 18.0147662,28.7602094 L20.4501363,26.1958115 C20.4693629,26.1763351 20.4885895,26.1503665 20.5014072,26.1308901 L23.3149006,24.488377 C23.4494868,24.4104712 23.5456198,24.2806283 23.584073,24.1313089 C23.6225262,23.9819895 23.6032996,23.8196859 23.5263932,23.6898429 L23.2636296,23.2353927 L26.8205517,19.4959162 C26.9423202,19.3855497 27,19.2362304 27,19.0804188 Z M12.2147401,6.77780105 L12.9709866,6.79078534 L13.3042478,7.11539267 L13.0222576,7.02450262 L12.2147401,6.77780105 Z M8.65140919,9.31623037 C8.80522204,9.58240838 8.84367525,9.89403141 8.76676883,10.1926702 C8.68986241,10.4913089 8.49759635,10.7445026 8.23483274,10.893822 C8.06179328,10.9976963 7.86311836,11.0496335 7.66444343,11.0496335 C7.25427584,11.0496335 6.87615259,10.8289005 6.6710688,10.4718325 C6.65184219,10.4328796 6.63261559,10.4004188 6.61338898,10.361466 C6.73515748,10.3809424 6.85051712,10.3874346 6.96587675,10.3874346 C7.65803456,10.3874346 8.21560613,10.0823037 8.53604956,9.5304712 C8.57450277,9.45905759 8.61295598,9.38764398 8.64500033,9.30973822 C8.65140919,9.30973822 8.65140919,9.30973822 8.65140919,9.31623037 Z M6.74797522,9.19937173 C6.83769938,9.07602094 6.95305902,8.9721466 7.08764526,8.89424084 C7.25427584,8.79685864 7.43372416,8.74492147 7.62599022,8.73842932 C7.60676361,8.80984293 7.57471927,8.8747644 7.54267493,8.93319372 C7.4657685,9.06303665 7.33118226,9.21235602 6.96587675,9.21235602 C6.90178807,9.21884817 6.82488164,9.21235602 6.74797522,9.19937173 Z M2.04386567,4.90806283 C1.12098859,3.22659686 0.999220085,1.96062827 1.29402804,1.44774869 C1.37093446,1.31790576 1.5055207,1.16858639 1.87082622,1.16858639 C3.01801369,1.16858639 5.07526052,2.68125654 6.50443821,4.98596859 L5.09448712,4.54450262 C4.94067427,4.49905759 4.77404369,4.51204188 4.63304858,4.59643979 C4.49205347,4.6808377 4.39592044,4.81717277 4.35746723,4.97298429 L3.83194001,7.32963351 C3.14619107,6.60900524 2.53093968,5.77801047 2.04386567,4.90806283 Z M12.2467845,29.6171728 L3.47304337,14.2437696 L4.74199935,8.56314136 C4.74199935,8.56314136 4.74199935,8.55664921 4.74199935,8.55664921 L5.35084187,5.84293194 L7.26709358,6.44670157 C7.44013303,6.86219895 7.5490838,7.23874346 7.61958135,7.56984293 C7.23504923,7.57633508 6.85692599,7.68670157 6.51725595,7.88146597 C5.98531986,8.19308901 5.60719661,8.69298429 5.44697489,9.29026178 C5.28675318,9.88753927 5.37006847,10.5172775 5.67769416,11.0496335 C6.08786175,11.7702618 6.85051712,12.2182199 7.6708523,12.2182199 C8.06820215,12.2182199 8.46555201,12.1078534 8.81803978,11.9065969 C9.34997587,11.5949738 9.72809912,11.0950785 9.88832084,10.4913089 C10.0485426,9.89403141 9.96522726,9.26429319 9.65760157,8.72544503 C9.45892664,8.37486911 9.17052755,8.08272251 8.83085752,7.88146597 C8.80522204,7.56335079 8.74113336,7.22575916 8.63859146,6.8686911 L12.708223,8.14764398 L13.490105,8.39434555 L22.2574372,23.7612565 L12.2467845,29.6171728 Z M22.7124669,22.144712 L15.1756374,8.94617801 L25.6028666,19.1063874 L22.7124669,22.144712 Z" id="Shape"></path>
                        <path d="M12.6440075,13.7777778 C11.7638723,13.7777778 10.8898918,14.0167715 10.1205429,14.4696017 C7.70786447,15.8972746 6.87696758,19.0607966 8.26795052,21.5324948 C9.16655012,23.1236897 10.8468083,24.1111111 12.6563171,24.1111111 C13.5426071,24.1111111 14.4104327,23.8721174 15.1859365,23.4192872 C16.3553469,22.7274633 17.1923986,21.6142558 17.5432218,20.2809224 C17.8940449,18.9475891 17.7155559,17.557652 17.0385288,16.3626834 C16.1337744,14.7651992 14.4535163,13.7777778 12.6440075,13.7777778 Z M14.0903836,20.3501048 L13.604155,19.4884696 C13.8195727,19.5199161 13.9857521,19.5765199 14.0473,19.6897275 C14.195015,19.9538784 14.1703959,20.1740042 14.0903836,20.3501048 Z M11.2160958,17.5324948 L11.6715504,18.3438155 C11.4684423,18.3249476 11.3084177,18.2809224 11.2591793,18.2054507 C11.1114643,17.9350105 11.1360835,17.7085954 11.2160958,17.5324948 Z M9.22809804,20.9601677 C8.16947385,19.0796646 8.76033387,16.6834382 10.5329139,15.5324948 C10.3728893,15.7085954 10.3359606,15.9790356 10.4590564,16.1991614 L10.6129262,16.4696017 C10.0589949,17.0293501 9.80664847,17.8909853 10.2990318,18.7651992 C10.6929385,19.4633124 11.5238354,19.5073375 12.3178035,19.4821803 L13.130236,20.9161426 C12.9394375,20.9035639 12.7363294,20.8092243 12.5886144,20.5387841 C12.4347446,20.2683438 12.096231,20.1740042 11.831575,20.3312369 C11.5669189,20.4884696 11.474597,20.8343816 11.6284668,21.1048218 C12.0039091,21.7714885 12.5947692,22.048218 13.1856292,22.048218 C13.3702729,22.048218 13.5487619,22.0230608 13.7272508,21.9727463 L13.8811206,22.2431866 C13.9857521,22.4255765 14.1703959,22.5262055 14.3611944,22.5262055 C14.4042779,22.5262055 14.4473615,22.5199161 14.490445,22.5073375 C13.9242042,22.8092243 13.2964154,22.966457 12.6563171,22.966457 C11.2468697,22.9790356 9.9358991,22.2054507 9.22809804,20.9601677 Z M16.472288,19.9853249 C16.2137867,20.9727463 15.6106171,21.8092243 14.7674107,22.3501048 C14.9274352,22.1740042 14.9705188,21.9035639 14.8412682,21.6771488 L14.6873984,21.4067086 C15.2413296,20.8469602 15.4936761,19.9853249 15.0012927,19.1174004 C14.5889217,18.3815514 13.7580248,18.312369 12.9455923,18.3312369 L12.1762433,16.966457 C12.3670419,16.9790356 12.57015,17.0733753 12.717865,17.3438155 C12.8717348,17.6142558 13.2102483,17.7085954 13.4749044,17.5513627 C13.7395604,17.39413 13.8318823,17.048218 13.6780125,16.7777778 C13.1856292,15.9035639 12.3301131,15.6960168 11.5792285,15.9098532 L11.4253587,15.639413 C11.3022629,15.4192872 11.0560712,15.3186583 10.8221891,15.3689727 C11.38843,15.067086 12.0162187,14.9098532 12.6501623,14.9098532 C14.0596096,14.9098532 15.376735,15.6834382 16.0783813,16.9287212 C16.6015386,17.8595388 16.7430988,18.9475891 16.472288,19.9853249 Z" id="Shape"></path>
                    </g>
                </g>
            </g>
        </g>
    </g>
</svg>