<?xml version="1.0" encoding="UTF-8"?>
<svg width="25px" height="29px" viewBox="0 0 25 29" version="1.1" xmlns="http://www.w3.org/2000/svg" xmlns:xlink="http://www.w3.org/1999/xlink">
    <!-- Generator: Sketch 57.1 (83088) - https://sketch.com -->
    <title>noun_Mirror and Lipstick_1675004</title>
    <desc>Created with Sketch.</desc>
    <g id="Cerrado" stroke="none" stroke-width="1" fill="none" fill-rule="evenodd">
        <g id="Home-desplegado-2" transform="translate(-894.000000, -3202.000000)" fill="#000000" fill-rule="nonzero" stroke="#000000" stroke-width="0.2">
            <g id="Categories" transform="translate(221.000000, 2784.000000)">
                <g id="noun_Mirror-and-Lipstick_1675004" transform="translate(673.000000, 418.000000)">
                    <g id="Group">
                        <path d="M6.95241935,0.566708333 C3.2483871,0.566708333 0.236290323,4.80191667 0.236290323,10.008625 C0.236290323,14.28975 2.27459677,17.9087083 5.05806452,19.0614583 L4.68306452,25.6795 C4.63225806,26.5760833 4.92258065,27.4509167 5.45846774,28.017625 C5.84193548,28.4224167 6.33185484,28.6459583 6.83991935,28.6459583 L7.06733871,28.6459583 C7.57540323,28.6459583 8.06532258,28.4224167 8.44879032,28.0164167 C8.98467742,27.4497083 9.275,26.5760833 9.22298387,25.6795 L8.84798387,19.0614583 C11.6314516,17.9087083 13.6697581,14.28975 13.6697581,10.008625 C13.6685484,4.80191667 10.6564516,0.566708333 6.95241935,0.566708333 Z M8.25524194,25.733875 C8.29153226,26.361 8.09556452,26.980875 7.74354839,27.3530417 C7.60322581,27.5016667 7.37096774,27.6780833 7.06491935,27.6780833 L6.83870968,27.6780833 C6.53266129,27.6780833 6.3016129,27.5016667 6.16129032,27.3530417 C5.80927419,26.980875 5.61330645,26.3622083 5.64959677,25.733875 L6.01129032,19.346625 C6.31975806,19.40825 6.63185484,19.4505417 6.95241935,19.4505417 C7.27298387,19.4505417 7.58508065,19.40825 7.89354839,19.346625 L8.25524194,25.733875 Z M6.95241935,18.4826667 C3.78306452,18.4826667 1.20403226,14.68125 1.20403226,10.008625 C1.20403226,5.33479167 3.78306452,1.533375 6.95241935,1.533375 C10.1229839,1.533375 12.7008069,5.33479167 12.7008069,10.008625 C12.7020161,14.68125 10.1229839,18.4826667 6.95241935,18.4826667 Z" id="Shape"></path>
                        <path d="M5.81653226,3.84975 C4.51733871,4.52520833 3.6016129,5.73354167 3.3016129,7.16541667 C3.24717742,7.42641667 3.41532258,7.68258333 3.6766129,7.73816667 C3.70927419,7.74541667 3.74314516,7.74783333 3.77580645,7.74783333 C3.99959677,7.74783333 4.2016129,7.59195833 4.24879032,7.36358333 C4.48830645,6.21566667 5.22258065,5.24779167 6.26290323,4.70766667 C6.5,4.58441667 6.59193548,4.292 6.46854839,4.05516667 C6.34516129,3.81833333 6.05241935,3.7265 5.81653226,3.84975 Z" id="Path"></path>
                        <path d="M23.1971774,15.3555 C23.3072581,15.1319583 23.3737903,14.8830417 23.3737903,14.6172083 L23.3737903,8.86191667 C23.3737903,8.09825 22.8608871,7.45904167 22.1629032,7.24879167 L22.1629032,0.838583333 C22.1629032,0.651291667 22.0528226,0.479708333 21.8834677,0.401166667 C21.7141129,0.321416667 21.5120968,0.348 21.3681452,0.468833333 L18.6741935,2.72479167 C18.5641129,2.816625 18.5,2.95195833 18.5,3.09575 L18.5,7.25 C17.8020161,7.45904167 17.2891129,8.09945833 17.2891129,8.863125 L17.2891129,14.6184167 C17.2891129,14.88425 17.3568548,15.1331667 17.4657258,15.3567083 C16.5923387,15.4231667 15.8979839,16.1469583 15.8979839,17.0350833 L15.8979839,25.4897917 C15.8979839,26.4214167 16.658871,27.1814583 17.5915323,27.1814583 L23.0677419,27.1814583 C24.0004032,27.1814583 24.7613045,26.4214167 24.7613045,25.4897917 L24.7613045,17.0350833 C24.7649194,16.14575 24.0705645,15.4219583 23.1971774,15.3555 Z M19.4701613,3.3205 L21.1951613,1.87533333 L21.1951613,7.17025 L19.4701613,7.17025 L19.4701613,3.3205 Z M18.2592742,8.86191667 C18.2592742,8.46195833 18.5846774,8.13691667 18.9850806,8.13691667 L18.9862903,8.13691667 L21.6802419,8.13691667 L21.6814516,8.13691667 C22.0818548,8.13691667 22.4072581,8.46195833 22.4072581,8.86191667 L22.4072581,14.6172083 C22.4072581,15.0171667 22.0818548,15.3434167 21.6814516,15.3434167 L18.983871,15.3434167 C18.5834677,15.3434167 18.2580645,15.0171667 18.2580645,14.6172083 L18.2580645,8.86191667 L18.2592742,8.86191667 Z M23.7959677,25.4897917 C23.7959677,25.88975 23.4705645,26.2147917 23.0701613,26.2147917 L17.5939516,26.2147917 C17.1935484,26.2147917 16.8681452,25.88975 16.8681452,25.4897917 L16.8681452,17.0350833 C16.8681452,16.635125 17.1935484,16.3100833 17.5939516,16.3100833 L18.983871,16.3100833 L21.6802419,16.3100833 L23.0701613,16.3100833 C23.4705645,16.3100833 23.7959677,16.635125 23.7959677,17.0350833 L23.7959677,25.4897917 Z" id="Shape"></path>
                    </g>
                </g>
            </g>
        </g>
    </g>
</svg>