<?xml version="1.0" encoding="UTF-8"?>
<svg width="25px" height="23px" viewBox="0 0 25 23" version="1.1" xmlns="http://www.w3.org/2000/svg" xmlns:xlink="http://www.w3.org/1999/xlink">
    <!-- Generator: Sketch 57.1 (83088) - https://sketch.com -->
    <title>noun_Art Tools_2171164</title>
    <desc>Created with Sketch.</desc>
    <g id="Cerrado" stroke="none" stroke-width="1" fill="none" fill-rule="evenodd">
        <g id="Home-desplegado-2" transform="translate(-243.000000, -3206.000000)" fill="#000000" fill-rule="nonzero">
            <g id="Categories" transform="translate(221.000000, 2784.000000)">
                <g id="noun_Art-Tools_2171164" transform="translate(22.000000, 422.000000)">
                    <path d="M9.10779413,20.132933 L9.10779413,20.132933 C9.9138718,19.3910642 10.3717434,18.3712276 10.3779011,17.3039707 C10.3697392,16.8544266 10.283919,16.4092245 10.1238797,15.9862062 L10.72083,15.5026229 L18.341472,22.8168203 C18.4567131,22.933699 18.6176112,23 18.7860095,23 C18.9544078,23 19.1153059,22.933699 19.2305469,22.8168203 L24.3109749,17.9809873 C24.4337653,17.8712945 24.5034198,17.7181427 24.5034198,17.5578519 C24.5034198,17.3975611 24.4337653,17.2444093 24.3109749,17.1347165 L17.1983757,10.2678336 L23.4727043,5.22647774 C24.1375126,4.69171027 24.5341877,3.91460344 24.5649963,3.08662164 C24.6092239,2.25680969 24.2822234,1.44797758 23.6649865,0.860457307 C23.0477497,0.272937034 22.1980071,-0.0383201522 21.3262235,0.0037781002 C20.4563626,0.0331034785 19.6399499,0.410680806 19.0781341,1.0434822 L13.7817879,7.01573595 L6.59298227,0.185121838 C6.47774124,0.068243108 6.31684312,0.00194212073 6.14844482,0.00194212073 C5.98004653,0.00194212073 5.81914841,0.068243108 5.70390737,0.185121838 L0.623479376,5.02095484 C0.500688954,5.13064765 0.431034483,5.2837994 0.431034483,5.44409023 C0.431034483,5.60438106 0.500688954,5.7575328 0.623479376,5.86722561 L8.24412137,13.181423 L7.81228499,13.6650063 C6.22567951,13.0250796 4.39023461,13.3592202 3.16369338,14.5112771 C2.63879694,15.0072842 2.34191552,15.6811484 2.33812383,16.3851624 C2.34096946,17.2183806 1.98797343,18.0169289 1.36014144,18.597556 L0.623479376,19.2987518 C0.472637951,19.430428 0.405183254,19.6276355 0.445664396,19.8186038 C0.461452433,19.9504495 0.529613009,20.071557 0.636180445,20.1571121 C2.99070919,22.3487478 6.75326539,22.3487478 9.10779413,20.1571121 L9.10779413,20.132933 Z M17.9985431,12.6978397 L15.9155677,14.6926208 C15.7927772,14.8023137 15.7231228,14.9554654 15.7231228,15.1157562 C15.7231228,15.2760471 15.7927772,15.4291988 15.9155677,15.5388916 C16.0308087,15.6557703 16.1917068,15.7220713 16.3601051,15.7220713 C16.5285034,15.7220713 16.6894015,15.6557703 16.8046426,15.5388916 L18.9003191,13.5562001 L20.5387571,15.1157562 L19.7258887,15.9015791 C19.6030982,16.0112719 19.5334438,16.1644236 19.5334438,16.3247145 C19.5334438,16.4850053 19.6030982,16.6381571 19.7258887,16.7478499 C19.8411297,16.8647286 20.0020278,16.9310296 20.1704261,16.9310296 C20.3388244,16.9310296 20.4997225,16.8647286 20.6149636,16.7478499 L21.4405331,15.9741166 L23.0789711,17.5336727 L18.8495148,21.5111454 L11.6861113,14.7047104 L16.2203933,11.0778357 L17.9985431,12.6978397 Z M1.9697928,5.44409023 L6.14844482,1.46661758 L7.78688285,3.02617373 L5.70390737,5.02095484 C5.58111695,5.13064765 5.51146248,5.2837994 5.51146248,5.44409023 C5.51146248,5.60438106 5.58111695,5.7575328 5.70390737,5.86722561 C5.81914841,5.98410434 5.98004653,6.05040533 6.14844482,6.05040533 C6.31684312,6.05040533 6.47774124,5.98410434 6.59298227,5.86722561 L8.68865882,3.88453408 L10.3270969,5.44409023 L9.51422837,6.22991309 C9.39143795,6.3396059 9.32178348,6.49275765 9.32178348,6.65304848 C9.32178348,6.81333931 9.39143795,6.96649105 9.51422837,7.07618386 C9.62946941,7.19306259 9.79036753,7.25936358 9.95876582,7.25936358 C10.1271641,7.25936358 10.2880622,7.19306259 10.4033033,7.07618386 L11.2288728,6.30245058 L12.9562183,7.9466338 L9.14589734,12.2626148 L1.9697928,5.44409023 Z M20.0561165,1.81721548 C20.369256,1.44870241 20.8294468,1.22092415 21.3262235,1.18855719 C21.8437103,1.17024142 22.3456691,1.35872823 22.7106401,1.70840923 C23.0926627,2.05411448 23.3046404,2.53661306 23.2948893,3.03826331 C23.2608852,3.51112286 23.021586,3.94915798 22.6344337,4.24722156 L9.5015273,14.8860542 C9.38768565,14.7534352 9.26463281,14.6282288 9.13319627,14.5112771 L8.95538129,14.3782917 L20.0561165,1.81721548 Z M2.27461848,19.3954684 C3.12405323,18.5822773 3.60311735,17.4835349 3.60823083,16.3368041 C3.61194212,15.9561331 3.77141099,15.5918339 4.05276827,15.3212791 C5.22041063,14.2433617 7.07647902,14.2433617 8.24412137,15.3212791 C8.79252401,15.8368806 9.10118482,16.5400377 9.10118482,17.2737467 C9.10118482,18.0074557 8.79252401,18.7106128 8.24412137,19.2262143 L8.24412137,19.2262143 C6.55107376,20.8003725 3.90701743,20.9695233 2.00789601,19.6251705 L2.27461848,19.3954684 Z" id="Shape"></path>
                </g>
            </g>
        </g>
    </g>
</svg>