<?xml version="1.0" encoding="UTF-8"?>
<svg width="26px" height="19px" viewBox="0 0 26 19" version="1.1" xmlns="http://www.w3.org/2000/svg" xmlns:xlink="http://www.w3.org/1999/xlink">
    <!-- Generator: Sketch 57.1 (83088) - https://sketch.com -->
    <title>noun_web programming_1889899</title>
    <desc>Created with Sketch.</desc>
    <g id="Cerrado" stroke="none" stroke-width="1" fill="none" fill-rule="evenodd">
        <g id="Home-desplegado-2" transform="translate(-893.000000, -2892.000000)" fill="#000000" fill-rule="nonzero">
            <g id="Categories" transform="translate(221.000000, 2784.000000)">
                <g id="noun_web-programming_1889899" transform="translate(672.000000, 108.000000)">
                    <g id="Group">
                        <path d="M9.08846617,10.5056897 L11.0211165,8.19494695 C11.1973985,7.98413263 11.1746241,7.66592042 10.9701917,7.48413528 C10.7657594,7.30240053 10.4571805,7.32583554 10.2808985,7.53659947 L8.07339098,10.1759867 C7.91538722,10.364878 7.91519173,10.6445862 8.07295113,10.8337798 L10.2804586,13.4809788 C10.3771278,13.5968939 10.5137744,13.656313 10.651203,13.656313 C10.7640489,13.656313 10.8773835,13.6162467 10.9696541,13.5344509 C11.1743308,13.3529682 11.1975451,13.034756 11.0215564,12.8236897 L9.08846617,10.5056897 Z" id="Path"></path>
                        <path d="M15.6830338,7.53720424 C15.5069962,7.32613793 15.1983684,7.30224934 14.9938383,7.4836817 C14.7891617,7.66516446 14.7659474,7.98337666 14.9419361,8.19444297 L16.8750263,10.5124934 L14.9423759,12.8232865 C14.766094,13.0341008 14.7888684,13.352313 14.9933008,13.5340981 C15.0856203,13.6162467 15.1991992,13.6564642 15.3122895,13.6564642 C15.4495226,13.6564642 15.5859248,13.5971963 15.682594,13.481634 L17.8901504,10.8421963 C18.0481541,10.6532546 18.0483496,10.3735968 17.8905902,10.1844032 L15.6830338,7.53720424 Z" id="Path"></path>
                        <path d="M13.984188,6.84609814 C13.7255564,6.7663687 13.4532406,6.91781432 13.3758759,7.1844695 L11.5307556,13.5448833 C11.453391,13.8115385 11.6003008,14.0924058 11.8588835,14.1721353 C11.9056053,14.1865491 11.9527669,14.1934536 11.9991466,14.1934536 C12.2094925,14.1934536 12.4038083,14.0522387 12.4671955,13.8337639 L14.3123158,7.47335013 C14.3897293,7.20669496 14.2427707,6.92582759 13.984188,6.84609814 Z" id="Path"></path>
                        <path d="M24.7781955,0 L1.22180451,0 C0.548101504,0 0,0.565212202 0,1.25994695 L0,17.7400531 C0,18.4347878 0.548101504,19 1.22180451,19 L24.7781955,19 C25.4518985,19 26,18.4347878 26,17.7400531 L26,1.25994695 C26,0.565212202 25.4518985,0 24.7781955,0 Z M1.22180451,1.00795756 L24.7781955,1.00795756 C24.9129361,1.00795756 25.0225564,1.121 25.0225564,1.25994695 L25.0225564,3.17506631 L0.977443609,3.17506631 L0.977443609,1.25994695 C0.977443609,1.121 1.08706391,1.00795756 1.22180451,1.00795756 Z M24.7781955,17.9920424 L1.22180451,17.9920424 C1.08706391,17.9920424 0.977443609,17.879 0.977443609,17.7400531 L0.977443609,4.18302387 L25.0225564,4.18302387 L25.0225564,17.7400531 C25.0225564,17.879 24.9129361,17.9920424 24.7781955,17.9920424 Z" id="Shape"></path>
                        <ellipse id="Oval" cx="3.38234586" cy="2.0568382" rx="1" ry="1"></ellipse>
                        <ellipse id="Oval" cx="5.14174436" cy="2.0568382" rx="1" ry="1"></ellipse>
                        <ellipse id="Oval" cx="6.90114286" cy="2.0568382" rx="1" ry="1"></ellipse>
                    </g>
                </g>
            </g>
        </g>
    </g>
</svg>