<?xml version="1.0" encoding="UTF-8"?>
<svg width="29px" height="30px" viewBox="0 0 29 30" version="1.1" xmlns="http://www.w3.org/2000/svg" xmlns:xlink="http://www.w3.org/1999/xlink">
    <!-- Generator: Sketch 57.1 (83088) - https://sketch.com -->
    <title>noun_Sports_2125615</title>
    <desc>Created with Sketch.</desc>
    <g id="Cerrado" stroke="none" stroke-width="1" fill="none" fill-rule="evenodd">
        <g id="Home-desplegado-2" transform="translate(-566.000000, -2966.000000)" fill="#000000" fill-rule="nonzero" stroke="#000000" stroke-width="0.2">
            <g id="Categories" transform="translate(221.000000, 2784.000000)">
                <g id="noun_Sports_2125615" transform="translate(346.000000, 183.000000)">
                    <path d="M25.8062099,2.01338618 C25.0170276,1.21863591 23.987562,0.77726466 22.9594967,0.81265897 C22.1339078,0.838323344 21.3962548,1.17506281 20.8722804,1.77267668 L12.1992557,12.4080317 C10.3894294,14.6277202 8.45035989,16.7824015 6.43595673,18.8127093 L2.32229515,22.9593429 L1.68882094,22.3213992 C1.6081664,22.2401756 1.49880667,22.1944874 1.38468611,22.1944874 C1.27056554,22.1944874 1.16120584,22.2401756 1.0805513,22.3213992 L0.312092764,23.0952796 C0.086932158,23.3220288 -0.0250880367,23.6463591 0.00473736705,23.9850727 C0.0324623688,24.2998142 0.176968406,24.6035566 0.411790751,24.8398946 L3.13948251,27.5868314 C3.41113147,27.8603969 3.7613346,28 4.09711515,28 C4.3858472,28 4.66393734,27.8967783 4.87201484,27.6872328 L5.64033335,26.9133524 C5.80836364,26.7441366 5.80836364,26.470007 5.64033335,26.3007912 L5.00699917,25.6628475 L9.12444146,21.5201623 C11.1389846,19.4932389 13.2785703,17.5407704 15.4835479,15.7169059 L26.0568551,6.97183259 C26.6385199,6.45431422 26.9729002,5.71145679 26.9983848,4.88018409 C27.0300305,3.85304413 26.5953921,2.80813646 25.8062099,2.01338618 Z M4.26374514,27.0746715 C4.1653074,27.1733807 3.92908481,27.1567412 3.74789215,26.9742701 L1.02006039,24.2273334 C0.838727709,24.0445803 0.821924666,23.806832 0.920362407,23.7078408 L1.38468611,23.2402411 L2.01830035,23.8784668 C2.17960943,24.0409139 2.46540094,24.0409139 2.62671002,23.8784668 L2.79004947,23.7138162 L4.25786408,25.1918811 L4.09445463,25.3562849 C4.01366006,25.4375085 3.96829189,25.5477808 3.96829189,25.6628475 C3.96829189,25.7776322 4.01366006,25.8879046 4.0943146,25.9691281 L4.72792884,26.6070718 L4.26374514,27.0746715 Z M4.86639629,24.5795843 L3.39803908,23.100973 L4.10838715,22.384908 L5.57740947,23.8641892 L4.86639629,24.5795843 Z M6.18594168,23.2518923 L4.71637676,21.7720648 L5.42665479,21.056088 L6.89683232,22.5366382 L6.18594168,23.2518923 Z M7.50536453,21.9243414 L6.03462688,20.4432271 L6.74500996,19.7271798 L8.21644773,21.2088934 L7.50536453,21.9243414 Z M8.82877812,20.6004215 L7.34920139,19.1105115 C7.5845138,18.8709477 7.81776086,18.6284756 8.05086788,18.3857038 L9.54852536,19.8938221 C9.30743691,20.1285914 9.06662849,20.3634665 8.82877812,20.6004215 Z M25.4989945,6.31245497 L14.9374494,15.0473754 C13.3034073,16.399022 11.7060868,17.8215982 10.1669469,19.2914843 L8.6490207,17.7629543 C10.1096765,16.2119504 11.5225837,14.6031486 12.8640956,12.9579831 L21.5270384,2.33447319 C21.8821424,1.92976536 22.4002358,1.6968116 22.9861014,1.67862089 C23.7727633,1.65366155 24.575668,1.99942586 25.1979402,2.62594742 C25.8199323,3.25246898 26.1627141,4.06428187 26.1386298,4.8533916 C26.1204265,5.44324974 25.8891048,5.96499849 25.4989945,6.31245497 Z M7.06495013,11.2487624 C10.1445253,11.2487624 12.649997,8.72575455 12.649997,5.62445167 C12.649997,2.52314879 10.1445253,0 7.06495013,0 C3.98537496,0 1.48004332,2.52314882 1.48004332,5.62445167 C1.48004332,8.72575452 3.98537496,11.2487624 7.06495013,11.2487624 Z M10.5353708,2.40683057 C11.3113032,3.25490147 11.7896819,4.38313028 11.7896819,5.62445167 C11.7896819,6.90552116 11.2819329,8.06768127 10.46142,8.92393093 C9.49416058,8.09725879 8.93792782,6.92937002 8.93792782,5.69481726 C8.93792782,4.41889474 9.52074785,3.23630535 10.5353708,2.40683057 Z M7.06495013,0.866384976 C8.12303337,0.866384976 9.09766157,1.2227958 9.88607371,1.81676092 C8.73265078,2.80699072 8.07761269,4.19803285 8.07761269,5.69481726 C8.07761269,7.14104843 8.70151265,8.51174943 9.79864545,9.4979251 C9.02602116,10.0525299 8.08391381,10.3823774 7.06495013,10.3823774 C6.04596893,10.3823774 5.10386159,10.0525299 4.3312723,9.49790745 C5.42838758,8.51173179 6.05228757,7.14103079 6.05228757,5.69481726 C6.05228757,4.19799762 5.39719697,2.80692022 4.24384404,1.81677857 C5.03223869,1.22279577 6.00684937,0.866384976 7.06495013,0.866384976 Z M3.59468704,2.40674243 C4.60929245,3.23644634 5.19197251,4.41891238 5.19197251,5.69481724 C5.19197251,6.92935238 4.63575723,8.09722353 3.66853287,8.92389567 C2.84807248,8.06764601 2.34035844,6.90550351 2.34035844,5.62445167 C2.34035844,4.3830774 2.81873714,3.25483095 3.59468704,2.40674243 Z" id="Shape"></path>
                </g>
            </g>
        </g>
    </g>
</svg>