<?xml version="1.0" encoding="UTF-8"?>
<svg width="25px" height="23px" viewBox="0 0 25 23" version="1.1" xmlns="http://www.w3.org/2000/svg" xmlns:xlink="http://www.w3.org/1999/xlink">
    <!-- Generator: Sketch 57.1 (83088) - https://sketch.com -->
    <title>noun_travelling_1195547</title>
    <desc>Created with Sketch.</desc>
    <g id="Cerrado" stroke="none" stroke-width="1" fill="none" fill-rule="evenodd">
        <g id="Home-desplegado-2" transform="translate(-243.000000, -3047.000000)" fill="#000000" fill-rule="nonzero" stroke="#FFFFFF" stroke-width="0.5">
            <g id="Categories" transform="translate(221.000000, 2784.000000)">
                <g id="noun_travelling_1195547" transform="translate(23.000000, 264.000000)">
                    <path d="M20.0081301,3.60701775 L16.6422764,3.60701775 L16.6422764,2.99234103 C16.6422764,1.34231431 15.3001734,0 13.6504065,0 L9.3495935,0 C7.69982656,0 6.35772358,1.34231431 6.35772358,2.99234103 L6.35772358,3.60701775 L2.99186992,3.60701775 C1.34210298,3.60701775 0,4.94933207 0,6.59935878 L0,18.007659 C0,19.6576857 1.34210298,21 2.99186992,21 L20.0081301,21 C21.657897,21 23,19.6576857 23,18.007659 L23,6.59935878 C23,4.94933207 21.657897,3.60701775 20.0081301,3.60701775 Z M8.35230352,2.99259039 C8.35230352,2.44249837 8.79958808,1.99514338 9.3495935,1.99514338 L13.6504065,1.99514338 C14.2004119,1.99514338 14.6476965,2.44249837 14.6476965,2.99259039 L14.6476965,3.60726711 L8.35230352,3.60726711 L8.35230352,2.99259039 Z M2.99186992,5.60191177 L20.0081301,5.60191177 C20.5581355,5.60191177 21.0054201,6.04926676 21.0054201,6.59935878 L21.0054201,9.95352372 L13.9827534,11.5531794 L13.9827534,11.1389895 C13.9827534,10.4657128 13.4352412,9.91811435 12.7620705,9.91811435 L10.2379295,9.91811435 C9.56475881,9.91811435 9.01724661,10.4657128 9.01724661,11.1389895 L9.01724661,11.5531794 L1.99457995,9.95352372 L1.99457995,6.59935878 C1.99457995,6.04926676 2.4418645,5.60191177 2.99186992,5.60191177 Z M12.5384282,11.362667 L12.5384282,14.1260939 L10.4615718,14.1260939 L10.4615718,11.362667 L12.5384282,11.362667 Z M20.0081301,19.005106 L2.99186992,19.005106 C2.4418645,19.005106 1.99457995,18.557751 1.99457995,18.007659 L1.99457995,11.9997863 L9.01724661,13.5994419 L9.01724661,14.3497714 C9.01724661,15.0230482 9.56475881,15.5706466 10.2379295,15.5706466 L12.7618211,15.5706466 C13.4349919,15.5706466 13.9825041,15.0230482 13.9825041,14.3497714 L13.9825041,13.5994419 L21.0051708,11.9997863 L21.0051708,18.0079083 C21.0054201,18.557751 20.5581355,19.005106 20.0081301,19.005106 Z" id="Shape"></path>
                </g>
            </g>
        </g>
    </g>
</svg>