<?xml version="1.0" encoding="UTF-8"?>
<svg width="31px" height="23px" viewBox="0 0 31 23" version="1.1" xmlns="http://www.w3.org/2000/svg" xmlns:xlink="http://www.w3.org/1999/xlink">
    <!-- Generator: Sketch 57.1 (83088) - https://sketch.com -->
    <title>noun_Coins_1105246</title>
    <desc>Created with Sketch.</desc>
    <g id="Cerrado" stroke="none" stroke-width="1" fill="none" fill-rule="evenodd">
        <g id="Home-desplegado-2" transform="translate(-565.000000, -3206.000000)" fill="#000000" fill-rule="nonzero">
            <g id="Categories" transform="translate(221.000000, 2784.000000)">
                <g id="noun_Coins_1105246" transform="translate(344.000000, 422.000000)">
                    <path d="M25.2271259,14.551676 C24.926803,14.4231844 24.5597417,14.3268156 24.0925727,14.198324 L24.0925727,12.0139665 C24.5931109,12.0460894 25.0602799,12.1103352 25.4940797,12.2709497 C25.5608181,12.3030726 25.5941873,12.3030726 25.6609257,12.3030726 C25.7610334,12.3030726 25.861141,12.2709497 25.9278794,12.174581 C25.9946179,12.1103352 26.0279871,12.0139665 26.0279871,11.9175978 C26.0279871,11.7248603 25.9278794,11.5963687 25.7610334,11.5642458 C25.2938644,11.3715084 24.7265877,11.2751397 24.0925727,11.2751397 L24.0925727,10.6326816 C24.0925727,10.5684358 24.0592034,10.472067 23.992465,10.4399441 C23.9257266,10.3756983 23.8589882,10.3435754 23.7922497,10.3435754 C23.7255113,10.3435754 23.6254037,10.3756983 23.5920344,10.4399441 C23.525296,10.5041899 23.525296,10.5684358 23.525296,10.6326816 L23.525296,11.2751397 C23.058127,11.3072626 22.6910657,11.4036313 22.3573735,11.5963687 C22.0236814,11.7891061 21.7900969,11.9818436 21.6232508,12.2709497 C21.4564047,12.527933 21.3896663,12.849162 21.3896663,13.1382682 C21.3896663,13.4916201 21.489774,13.8128492 21.6899892,14.0377095 C21.8902045,14.2625698 22.123789,14.4553073 22.4241119,14.5837989 C22.7244349,14.7122905 23.0914962,14.8407821 23.525296,14.9371508 L23.525296,17.0572626 C22.9580194,17.0251397 22.4241119,16.896648 21.8902045,16.7039106 C21.8234661,16.6717877 21.7567277,16.6717877 21.7233584,16.6717877 C21.6232508,16.6717877 21.5231432,16.7039106 21.4564047,16.8002793 C21.3896663,16.8645251 21.3562971,16.9608939 21.3562971,17.0572626 C21.3562971,17.1215084 21.3896663,17.2178771 21.4230355,17.2821229 C21.489774,17.3463687 21.5231432,17.4106145 21.6232508,17.4427374 C22.2238967,17.6997207 22.8579117,17.8282123 23.5586652,17.8603352 L23.5586652,18.5027933 C23.5586652,18.599162 23.5920344,18.6634078 23.6254037,18.6955307 C23.6921421,18.7597765 23.7588805,18.7597765 23.8256189,18.7597765 C23.9257266,18.7597765 23.992465,18.7276536 24.0258342,18.6955307 C24.0925727,18.6312849 24.0925727,18.5670391 24.0925727,18.5027933 L24.0925727,17.8603352 C24.5263724,17.8282123 24.926803,17.7318436 25.2604952,17.603352 C25.5941873,17.4427374 25.861141,17.25 26.0279871,16.9608939 C26.1948332,16.7039106 26.2949408,16.4148045 26.2949408,16.0935754 C26.2949408,15.7081006 26.1948332,15.3868715 25.9946179,15.1298883 C25.7944026,14.872905 25.5274489,14.6801676 25.2271259,14.551676 Z M23.4919268,14.0698324 C23.0914962,13.9734637 22.7578041,13.8449721 22.5575888,13.6843575 C22.3573735,13.523743 22.2238967,13.3310056 22.2238967,13.0740223 C22.2238967,12.7849162 22.3240043,12.5600559 22.5575888,12.3994413 C22.7911733,12.2388268 23.0914962,12.1103352 23.4585576,12.0782123 L23.4585576,14.0698324 L23.4919268,14.0698324 Z M24.0925727,17.0572626 L24.0925727,15.0656425 C24.5263724,15.1941341 24.8600646,15.2905028 25.0936491,15.4511173 C25.3272336,15.5796089 25.4273412,15.7723464 25.4273412,15.9972067 C25.4273412,16.6396648 24.9935414,16.9930168 24.0925727,17.0572626 Z M23.7922497,7.58100559 C23.2917115,7.58100559 22.8245425,7.6452514 22.3573735,7.70949721 C22.3573735,7.6773743 22.3573735,7.6452514 22.3573735,7.6452514 L22.3573735,5.26815642 L22.3240043,5.26815642 C22.3573735,5.17178771 22.3573735,5.07541899 22.3573735,4.97905028 L22.3573735,2.5698324 C22.3573735,0.546089385 16.4176534,0 13.2809473,0 C10.1442411,0 4.20452099,0.546089385 4.20452099,2.5698324 L4.20452099,4.97905028 C4.20452099,5.07541899 4.2378902,5.17178771 4.2378902,5.26815642 L4.20452099,5.26815642 L4.20452099,7.6773743 C4.20452099,7.77374302 4.2378902,7.87011173 4.2378902,7.96648045 L4.20452099,7.96648045 L4.20452099,10.3756983 C4.20452099,10.472067 4.2378902,10.5684358 4.2378902,10.6648045 L4.20452099,10.6648045 L4.20452099,13.0740223 C4.20452099,13.1382682 4.20452099,13.1703911 4.2378902,13.2346369 C2.50269107,13.3952514 0,13.877095 0,15.0977654 L0,16.896648 C0,16.9608939 0,17.0572626 0.0333692142,17.1215084 L0,17.1215084 L0,18.9203911 C0,18.9846369 0,19.0810056 0.0333692142,19.1452514 L0,19.1452514 L0,20.9441341 C0,22.5502793 4.37136706,23 6.94079656,23 C9.51022605,23 13.8815931,22.5824022 13.8815931,20.9441341 L13.8815931,19.1452514 L13.8482239,19.1452514 C13.8815931,19.0810056 13.8815931,18.9846369 13.8815931,18.9203911 L13.8815931,18.277933 C15.1496233,18.2458101 16.4176534,18.1815642 17.5188375,18.0209497 C18.8202368,20.1731844 21.189451,21.4902235 23.7588805,21.4902235 C27.7631862,21.4902235 31,18.3743017 31,14.5195531 C31,10.6648045 27.7965554,7.58100559 23.7922497,7.58100559 Z M13.2809473,0.963687151 C18.5866523,0.963687151 21.3562971,2.08798883 21.3562971,2.5698324 C21.3562971,3.05167598 18.6200215,4.17597765 13.2809473,4.17597765 C7.94187298,4.17597765 5.20559742,3.05167598 5.20559742,2.5698324 C5.20559742,2.08798883 7.9752422,0.963687151 13.2809473,0.963687151 Z M5.23896663,3.8226257 C7.07427341,4.81843575 10.9784715,5.1075419 13.3143165,5.1075419 C15.6501615,5.1075419 19.5543595,4.81843575 21.3896663,3.8226257 L21.3896663,4.94692737 C21.3896663,5.42877095 18.6533907,6.55307263 13.3143165,6.55307263 C7.9752422,6.55307263 5.23896663,5.42877095 5.23896663,4.94692737 L5.23896663,3.8226257 Z M5.23896663,6.23184358 C7.07427341,7.22765363 10.9784715,7.51675978 13.3143165,7.51675978 C15.6501615,7.51675978 19.5543595,7.22765363 21.3896663,6.23184358 L21.3896663,7.6773743 C21.3896663,8.15921788 18.6533907,9.28351955 13.3143165,9.28351955 C7.9752422,9.28351955 5.23896663,8.15921788 5.23896663,7.6773743 L5.23896663,6.23184358 Z M5.23896663,8.9301676 C7.07427341,9.92597765 10.9784715,10.2150838 13.3143165,10.2150838 C14.7491927,10.2150838 16.7847147,10.0865922 18.5532831,9.79748603 C17.9860065,10.3756983 17.5522067,11.0181564 17.2185145,11.7248603 C16.0172228,11.8854749 14.6824543,11.9497207 13.3143165,11.9497207 C8.00861141,11.9497207 5.23896663,10.825419 5.23896663,10.3435754 L5.23896663,8.9301676 Z M13.8815931,17.1536313 C13.9149623,17.0893855 13.9149623,16.9930168 13.9149623,16.9287709 L13.9149623,15.6117318 C14.8493003,15.6117318 15.7836383,15.547486 16.6512379,15.4511173 C16.7179763,16.0293296 16.8848224,16.6075419 17.0850377,17.1215084 C16.0839612,17.25 15.0161464,17.3142458 13.9149623,17.3463687 L13.8815931,17.1536313 L13.8815931,17.1536313 Z M5.23896663,11.6284916 C7.07427341,12.6243017 10.9784715,12.9134078 13.3143165,12.9134078 C14.5489774,12.9134078 15.7168999,12.849162 16.8514532,12.7206704 C16.6846071,13.2988827 16.5844995,13.877095 16.5844995,14.4874302 C15.6835307,14.5837989 14.7491927,14.6159218 13.7814855,14.6480447 C13.0139935,13.4273743 9.27664155,13.0740223 6.97416577,13.0740223 C6.40688913,13.0740223 5.83961249,13.1061453 5.27233584,13.1382682 C5.23896663,13.1061453 5.23896663,13.0740223 5.23896663,13.0740223 L5.23896663,11.6284916 Z M4.77179763,14.1340782 L4.77179763,14.1340782 L4.87190527,14.1340782 C4.9386437,14.1340782 5.00538213,14.1340782 5.07212056,14.1019553 C5.67276642,14.0698324 6.30678149,14.0377095 6.94079656,14.0377095 C10.5113025,14.0377095 12.6803014,14.7444134 12.8805167,15.0977654 C12.6803014,15.4832402 10.5113025,16.1899441 6.94079656,16.1899441 C6.47362756,16.1899441 6.00645856,16.1899441 5.53928956,16.1578212 C2.56942949,15.9972067 1.13455328,15.3868715 1.00107643,15.1298883 C1.13455328,14.9050279 2.20236814,14.3589385 4.77179763,14.1340782 Z M1.00107643,16.2541899 C2.33584499,16.896648 4.60495156,17.0572626 5.50592034,17.1215084 C6.00645856,17.1536313 6.47362756,17.1536313 6.94079656,17.1536313 C8.74273412,17.1536313 11.4456405,16.9287709 12.8805167,16.2541899 L12.8805167,16.896648 C12.8805167,16.9287709 12.7136706,17.1215084 12.0462863,17.3463687 C10.8783638,17.7318436 8.97631862,17.9888268 6.94079656,17.9888268 C3.33692142,17.9888268 1.13455328,17.2821229 1.00107643,16.896648 L1.00107643,16.2541899 Z M1.00107643,18.0530726 C2.43595264,18.7276536 5.13885899,18.952514 6.94079656,18.952514 C9.07642626,18.952514 11.0118407,18.6955307 12.2798708,18.277933 C12.4800861,18.277933 12.6803014,18.277933 12.8805167,18.277933 L12.8805167,18.8882682 C12.7136706,19.273743 10.5446717,19.9804469 6.94079656,19.9804469 C3.33692142,19.9804469 1.13455328,19.273743 1.00107643,18.8882682 L1.00107643,18.0530726 Z M6.94079656,22.0684358 C3.33692142,22.0684358 1.1679225,21.3296089 1.00107643,20.976257 L1.00107643,20.0768156 C2.43595264,20.7513966 5.13885899,20.976257 6.94079656,20.976257 C8.74273412,20.976257 11.4456405,20.7513966 12.8805167,20.0768156 L12.8805167,20.9441341 C12.7136706,21.3617318 10.5446717,22.0684358 6.94079656,22.0684358 Z M23.7922497,20.5586592 C21.4564047,20.5586592 19.320775,19.3058659 18.2529602,17.2821229 L17.8191604,17.5069832 L18.2529602,17.2821229 C17.8525296,16.5432961 17.6189451,15.7402235 17.5855759,14.872905 L17.5855759,14.872905 L17.5855759,14.7444134 C17.5855759,14.6801676 17.5855759,14.5837989 17.5855759,14.5195531 C17.5855759,13.7486034 17.7190527,13.0097765 18.0193757,12.3030726 L18.0193757,12.3030726 C18.7201292,10.6005587 20.2217438,9.28351955 22.0236814,8.76955307 L22.0236814,8.76955307 C22.6243272,8.60893855 23.2249731,8.51256983 23.8256189,8.51256983 C27.262648,8.51256983 30.065662,11.2108939 30.065662,14.5195531 C30.065662,17.8282123 27.2292788,20.5586592 23.7922497,20.5586592 Z" id="Shape"></path>
                </g>
            </g>
        </g>
    </g>
</svg>