<?xml version="1.0" encoding="UTF-8"?>
<svg width="31px" height="46px" viewBox="0 0 31 46" version="1.1" xmlns="http://www.w3.org/2000/svg" xmlns:xlink="http://www.w3.org/1999/xlink">
    <!-- Generator: Sketch 57.1 (83088) - https://sketch.com -->
    <title>Group 6</title>
    <desc>Created with Sketch.</desc>
    <defs>
        <polygon id="path-1" points="0.000163157895 0.298188235 30.8134561 0.298188235 30.8134561 45.9999459 0.000163157895 45.9999459"></polygon>
    </defs>
    <g id="Cerrado" stroke="none" stroke-width="1" fill="none" fill-rule="evenodd">
        <g id="Home-desplegado-2" transform="translate(-349.000000, -303.000000)">
            <g id="Group-10" transform="translate(219.000000, 294.000000)">
                <g id="Group-6" transform="translate(130.000000, 9.000000)">
                    <g id="Group-3">
                        <mask id="mask-2" fill="white">
                            <use xlink:href="#path-1"></use>
                        </mask>
                        <g id="Clip-2"></g>
                        <path d="M24.7914614,21.7352165 L17.0724614,21.7352165 C14.9758825,21.7352165 13.2697947,23.4323459 13.2697947,25.5191224 L13.2697947,26.0689576 C13.2697947,28.1551929 14.9764263,29.8528635 17.0730053,29.8528635 L21.1122509,29.8528635 L19.6286018,31.2610047 C18.4881281,32.1225576 17.8724789,33.9679694 17.8724789,35.2857341 L17.8724789,38.1831929 L7.11602281,38.1831929 C6.36658421,38.1831929 5.75637368,37.5759929 5.75637368,36.8302518 L5.75637368,3.27460471 C5.75637368,2.52886353 6.36658421,1.92166353 7.11602281,1.92166353 L23.4318123,1.92166353 C24.1817947,1.92166353 24.7914614,2.52886353 24.7914614,3.27460471 L24.7914614,21.7352165 Z M4.12479474,14.2675224 L3.08982982,14.2675224 C2.1723386,14.2675224 1.4256193,13.5244871 1.4256193,12.6120635 C1.4256193,11.69964 2.1723386,10.9566047 3.08982982,10.9566047 L4.12479474,10.9566047 L4.12479474,14.2675224 Z M4.12479474,20.3617106 L3.08982982,20.3617106 C2.1723386,20.3617106 1.4256193,19.6186753 1.4256193,18.7062518 C1.4256193,17.7927459 2.1723386,17.0502518 3.08982982,17.0502518 L4.12479474,17.0502518 L4.12479474,20.3617106 Z M4.12479474,26.5127224 L3.08982982,26.5127224 C2.1723386,26.5127224 1.4256193,25.7696871 1.4256193,24.8567224 C1.4256193,23.9426753 2.1723386,23.19964 3.08982982,23.19964 L4.12479474,23.19964 L4.12479474,26.5127224 Z M4.12479474,32.6631929 L3.08982982,32.6631929 C2.1723386,32.6631929 1.4256193,31.9201576 1.4256193,31.0071929 C1.4256193,30.0942282 2.1723386,29.3511929 3.08982982,29.3511929 L4.12479474,29.3511929 L4.12479474,32.6631929 Z M10.6848298,45.9999459 L10.6848298,42.8097106 C10.6848298,42.6506047 10.6380579,42.4952871 10.5494088,42.36324 L8.85311053,39.8067224 L18.6882684,39.8067224 C19.1385842,39.8067224 19.5040579,39.4425106 19.5040579,38.9949576 C19.5040579,38.9846753 19.5007947,38.9754753 19.5007947,38.9657341 C19.5007947,38.9559929 19.5040579,38.9467929 19.5040579,38.9370518 L19.5040579,35.2851929 C19.5040579,34.2569576 20.0326895,32.9727459 20.6331105,32.5370988 L23.7151632,29.6282753 C23.715707,29.6261106 23.7167947,29.6250282 23.7178825,29.6228635 C23.7934789,29.5508871 23.8527596,29.4664635 23.8962684,29.3701341 C23.8973561,29.3668871 23.8995316,29.36364 23.9006193,29.3603929 C23.9392333,29.2721812 23.9599,29.1753106 23.9642509,29.0751929 C23.9642509,29.0665341 23.9664263,29.0605812 23.9664263,29.0535459 C23.9664263,29.0486753 23.967514,29.0443459 23.967514,29.0405576 C23.967514,28.9453106 23.9490228,28.8554753 23.9191105,28.7710518 C23.9153035,28.7623929 23.9136719,28.7542753 23.9104088,28.7456165 C23.8734263,28.6503694 23.8174088,28.5648635 23.7488825,28.4901812 C23.7456193,28.4874753 23.7445316,28.4831459 23.7418123,28.4798988 C23.7396368,28.4777341 23.7385491,28.4777341 23.7369175,28.4766518 C23.6645842,28.4014282 23.5791982,28.3413576 23.4829351,28.2991459 C23.4796719,28.2980635 23.4769526,28.2958988 23.4731456,28.2937341 C23.3850404,28.2563929 23.2866018,28.2358282 23.1859877,28.2314988 C23.177286,28.2304165 23.1713035,28.2293341 23.1647772,28.2293341 C23.1598825,28.2282518 23.1555316,28.2271694 23.1511807,28.2271694 L17.0719175,28.2271694 C15.8748825,28.2271694 14.9008298,27.2579224 14.9008298,26.0667929 L14.9008298,25.5191224 C14.9008298,24.3279929 15.8748825,23.3598282 17.0719175,23.3598282 L25.8650404,23.3598282 L26.3469,23.3598282 L26.4246719,23.3598282 C28.1024789,24.5320165 30.2724789,29.4237106 28.3102333,36.8670518 C28.3096895,36.8686753 28.3096895,36.8713812 28.3091456,36.8724635 C28.3091456,36.8735459 28.3086018,36.8751694 28.3086018,36.8751694 C28.1579526,37.46884 27.8523035,37.6647459 27.1148298,38.0857812 L27.9300754,39.49284 C28.6931105,39.0550282 29.5573035,38.5582282 29.8868825,37.2859224 C29.8879702,37.2837576 29.8890579,37.2821341 29.8901456,37.2794282 C32.4734789,28.4723224 29.0928474,22.4706753 26.4235842,21.5138753 L26.4235842,21.3049812 L26.4235842,3.27460471 C26.4235842,1.63321647 25.0802509,0.298134118 23.4323561,0.298134118 L7.11656667,0.298134118 C5.46704035,0.298134118 4.1253386,1.63321647 4.1253386,3.27460471 L4.1253386,9.53709882 L3.09037368,9.53709882 C1.3864614,9.53709882 0.000163157895,10.9165576 0.000163157895,12.6120635 C0.000163157895,14.1776871 1.18251404,15.4705576 2.70477719,15.6599694 C1.18251404,15.8499224 0.000163157895,17.1427929 0.000163157895,18.7084165 C0.000163157895,20.4033812 1.3864614,21.78284 3.09037368,21.78284 C1.3864614,21.78284 0.000163157895,23.1622988 0.000163157895,24.8583459 C0.000163157895,26.5538518 1.3864614,27.9333106 3.09037368,27.9333106 C1.3864614,27.9333106 0.000163157895,29.3127694 0.000163157895,31.0082753 C0.000163157895,32.7043224 1.3864614,34.08324 3.09037368,34.08324 L4.1253386,34.08324 L4.1253386,36.8302518 C4.1253386,38.3953341 5.34739123,39.6806282 6.89195263,39.7948165 L9.05325088,43.0537812 L9.05325088,45.9999459 L10.6848298,45.9999459 Z" id="Fill-1" fill="#1B9DF8" mask="url(#mask-2)"></path>
                    </g>
                    <path d="M15.3856341,13.5909091 L13.2266667,11.5014355 L14.1235688,10.6326876 L15.3856341,11.8551359 L17.9109501,9.40909091 L18.8066667,10.2772646 L15.3856341,13.5909091 Z M16.0163933,6.27272727 C13.4498579,6.27272727 11.3666667,8.37962003 11.3666667,10.977826 C11.3666667,13.5749254 13.4498579,15.6818182 16.0163933,15.6818182 C18.5840222,15.6818182 20.6666667,13.5743721 20.6666667,10.977826 C20.6666667,8.37906675 18.5840222,6.27272727 16.0163933,6.27272727 L16.0163933,6.27272727 Z" id="Fill-4" fill="#1B9DF8"></path>
                </g>
            </g>
        </g>
    </g>
</svg>