<?xml version="1.0" encoding="UTF-8"?>
<svg width="27px" height="23px" viewBox="0 0 27 23" version="1.1" xmlns="http://www.w3.org/2000/svg" xmlns:xlink="http://www.w3.org/1999/xlink">
    <!-- Generator: Sketch 57.1 (83088) - https://sketch.com -->
    <title>noun_blog post_1453176</title>
    <desc>Created with Sketch.</desc>
    <g id="Cerrado" stroke="none" stroke-width="1" fill="none" fill-rule="evenodd">
        <g id="Home-desplegado-2" transform="translate(-567.000000, -2890.000000)" fill="#000000" fill-rule="nonzero">
            <g id="Categories" transform="translate(221.000000, 2784.000000)">
                <g id="noun_blog-post_1453176" transform="translate(346.000000, 106.000000)">
                    <path d="M5.26237064,22.9905809 C5.18891397,23.0031397 5.1137456,23.0031397 5.04028894,22.9905809 C4.81322814,22.9001907 4.66468885,22.6867512 4.66371563,22.4494741 L4.66371563,18.3258676 L2.21116124,18.3258676 C0.989970608,18.3258676 0,17.3693515 0,16.189429 L0,2.98829051 C0,1.80836802 0.989970608,0.851851852 2.21116124,0.851851852 L17.9210273,0.851851852 C18.2249831,0.889074502 18.4528503,1.13890743 18.4528503,1.43494101 C18.4528503,1.73097458 18.2249831,1.98080751 17.9210273,2.01803016 L2.21116124,2.01803016 C1.67789022,2.01803016 1.24558865,2.43572281 1.24558865,2.95097281 L1.24558865,16.1987584 C1.24558865,16.7140084 1.67789022,17.131701 2.21116124,17.131701 L5.26237064,17.131701 C5.59833138,17.131701 5.87068137,17.3948474 5.87068137,17.7194549 L5.87068137,20.8914599 L9.41433279,17.392925 C9.52559589,17.2744963 9.68330237,17.2067732 9.84884046,17.2063365 L23.1351193,17.2063365 C23.6683904,17.2063365 24.1006919,16.7886438 24.1006919,16.2733938 L24.1006919,7.92355711 C24.0710554,7.69762905 24.1791644,7.47549291 24.3781558,7.35343998 C24.5771472,7.23138706 24.8312024,7.23138706 25.0301938,7.35343998 C25.2291853,7.47549291 25.3372942,7.69762905 25.3076577,7.92355711 L25.3076577,16.1987584 C25.3025898,17.3606279 24.337453,18.3055831 23.1351193,18.3258676 L10.1095451,18.3258676 L5.70653403,22.7760041 C5.59459892,22.9026154 5.43436339,22.9800257 5.26237064,22.9905809 Z" id="Path"></path>
                    <path d="M14.4996838,5.1043303 L3.06541659,5.1043303 C2.76012135,5.05038352 2.53125,4.68830069 2.53125,4.25925926 C2.53125,3.83021783 2.76012135,3.468135 3.06541659,3.41418822 L14.4996838,3.41418822 C14.7345442,3.37268753 14.9654628,3.52407496 15.0923412,3.80272727 C15.2192196,4.08137957 15.2192196,4.43713895 15.0923412,4.71579125 C14.9654628,4.99444356 14.7345442,5.14583099 14.4996838,5.1043303 L14.4996838,5.1043303 Z" id="Path"></path>
                    <path d="M11.1077462,8.51173771 L3.07857058,8.51173771 C2.76575737,8.45779092 2.53125,8.09570809 2.53125,7.66666667 C2.53125,7.23762524 2.76575737,6.87554241 3.07857058,6.82159563 L11.1077462,6.82159563 C11.3483901,6.78009494 11.584995,6.93148237 11.7149979,7.21013467 C11.8450007,7.48878698 11.8450007,7.84454635 11.7149979,8.12319866 C11.584995,8.40185097 11.3483901,8.55323839 11.1077462,8.51173771 L11.1077462,8.51173771 Z" id="Path"></path>
                    <path d="M11.1077462,11.9191451 L3.07857058,11.9191451 C2.76575737,11.8651983 2.53125,11.5031155 2.53125,11.0740741 C2.53125,10.6450326 2.76575737,10.2829498 3.07857058,10.229003 L11.1077462,10.229003 C11.3483901,10.1875023 11.584995,10.3388898 11.7149979,10.6175421 C11.8450007,10.8961944 11.8450007,11.2519538 11.7149979,11.5306061 C11.584995,11.8092584 11.3483901,11.9606458 11.1077462,11.9191451 Z" id="Path"></path>
                    <path d="M14.9624438,11.9250669 C14.7553721,11.9290887 14.5604631,11.8325854 14.4455763,11.6691556 C14.3306895,11.5057258 14.3117233,11.2979852 14.3952808,11.118261 L15.9011962,7.61282815 C15.9361908,7.53435854 15.9897194,7.46455812 16.0576549,7.40880825 L23.6947971,0.166101861 C23.9341063,-0.055367287 24.3160111,-0.055367287 24.5553202,0.166101861 L26.8141933,2.32685806 C26.9332039,2.43249019 27.0005132,2.58031387 26.9999911,2.73489785 C26.9971586,2.88881253 26.93039,3.03544874 26.8141933,3.14293765 L19.3726245,10.1908978 C19.3182947,10.2472882 19.2515169,10.2916184 19.177051,10.3207286 L15.1971319,11.897246 C15.1212399,11.9195516 15.0417902,11.9289699 14.9624438,11.9250669 L14.9624438,11.9250669 Z M17.0355221,8.15997242 L16.0576549,10.2743605 L18.5903308,9.2635346 L25.4940726,2.77199238 L24.1055013,1.41804215 L17.0355221,8.15997242 Z" id="Shape"></path>
                </g>
            </g>
        </g>
    </g>
</svg>