<?xml version="1.0" encoding="UTF-8"?>
<svg width="23px" height="28px" viewBox="0 0 23 28" version="1.1" xmlns="http://www.w3.org/2000/svg" xmlns:xlink="http://www.w3.org/1999/xlink">
    <!-- Generator: Sketch 57.1 (83088) - https://sketch.com -->
    <title>noun_dress_2682827</title>
    <desc>Created with Sketch.</desc>
    <g id="Cerrado" stroke="none" stroke-width="1" fill="none" fill-rule="evenodd">
        <g id="Home-desplegado-2" transform="translate(-895.000000, -2966.000000)" fill="#000000" fill-rule="nonzero" stroke="#000000" stroke-width="0.5">
            <g id="Categories" transform="translate(221.000000, 2784.000000)">
                <g id="noun_dress_2682827" transform="translate(675.000000, 183.000000)">
                    <path d="M20.999978,22.0498937 C21.0008806,21.9721749 20.9740337,21.8971671 20.9212658,21.8348113 C20.9175628,21.8302927 20.9194143,21.8230631 20.9147855,21.8176408 C16.5359722,17.0749829 14.7946302,11.6220107 14.5409738,10.7643922 L15.8240679,6.62631467 C15.8370285,6.58564783 15.8416572,6.54317357 15.8379542,6.5006993 C15.8277709,6.37418023 15.7953696,6.24856486 15.7407501,6.12566062 C14.9705234,4.39144557 15.0158853,2.54245965 15.1103121,1.59447029 C15.1686346,1.01248254 14.806665,0.476583884 14.2299207,0.290420101 C13.631884,0.0988340723 13.0199611,0.00123364242 12.4108154,0.00014865407 C12.3571217,-0.00147748063 12.3043538,0.0102707193 12.2543631,0.033767119 L12.2543631,0.033767119 C12.2543631,0.033767119 12.2543631,0.033767119 12.2543631,0.033767119 C12.2488086,0.0364782421 12.2423283,0.0400930728 12.2367738,0.0428041959 C10.5343134,0.957356372 8.78926836,0.050937565 8.7726048,0.0419004882 C8.76890179,0.0400930728 8.76334727,0.0409967805 8.75964425,0.0391893651 C8.71243083,0.016596673 8.66244015,0.00014865407 8.6059692,0.00014865407 C8.59578591,0.00014865407 8.58652838,0.00304105779 8.57634509,0.00304105779 C8.57449359,0.00304105779 8.57264208,0.00304105779 8.56986482,0.00394476547 C7.96997666,0.00755959621 7.36823699,0.102448903 6.77945787,0.291323809 C6.20271355,0.477487592 5.84074399,1.01428996 5.89906645,1.59447029 C5.99441905,2.54245965 6.03885521,4.39144557 5.26862843,6.12746803 C5.21400899,6.24946857 5.18160762,6.37508394 5.17142433,6.50160301 C5.16772132,6.54407727 5.17235009,6.58745524 5.18531063,6.62812209 L6.46933051,10.7318587 C6.2452982,11.4963954 4.51228796,17.0243753 0.0844097706,21.8194483 C0.0797810039,21.8248705 0.0816325106,21.8330039 0.077003744,21.8384261 C0.0260873106,21.9007819 -0.00168528935,21.9739823 7.92291621e-05,22.0517011 C7.92291621e-05,22.0616419 0.00201772399,22.0688716 0.00294347732,22.0788124 C0.00942375065,22.1456867 0.029790324,22.2107537 0.0779294973,22.2658799 C0.211237977,22.4177027 3.40971574,25.9765036 10.4630304,25.9981926 C10.4667334,25.9981926 10.4695107,26 10.4732137,26 C10.4824712,26 10.4898772,25.9990963 10.4991348,25.9990963 C10.5083923,25.9990963 10.5157983,26 10.5250559,26 C10.5287589,26 10.5315361,25.9981926 10.5352391,25.9981926 C17.5885538,25.9765036 20.7879573,22.4186064 20.92034,22.2658799 C20.9684792,22.2107537 20.9888458,22.1456867 20.9953261,22.0788124 C20.9971776,22.0670642 20.9990291,22.0598345 20.999978,22.0498937 Z M10.5000605,25.3195081 C4.71132493,25.3113747 1.59894222,22.7719562 0.812977644,22.0291084 C4.89647559,17.4961107 6.67299624,12.4055253 7.07477319,11.1195493 C7.63207669,11.2144386 8.87536342,11.3888542 10.4963575,11.3888542 C11.5137604,11.3888542 12.6848384,11.3138464 13.9225706,11.1132233 C14.3215703,12.3901623 16.0980909,17.4906884 20.1880691,22.0300121 C19.4067333,22.7710524 16.3073112,25.3113747 10.5000605,25.3195081 Z M11.8414771,0.942897049 C11.3832292,2.32918464 10.832406,3.93868802 10.5037635,4.78546212 C10.1741953,3.93507319 9.61781759,2.31201419 9.15956969,0.920304357 C9.79648799,1.11279409 10.7824153,1.27546148 11.8414771,0.942897049 Z M5.90554673,6.39586921 C6.73687322,4.51977206 6.69058555,2.54065223 6.58875269,1.52759592 C6.56283159,1.26461698 6.72946719,1.0197122 6.9951584,0.93476368 C7.44414877,0.79017045 7.90054516,0.719681251 8.35694155,0.697992267 C10.0519959,5.90334853 10.1973392,5.91509673 10.5037635,5.91509673 C10.8101879,5.91509673 10.9527539,5.91509673 12.6552143,0.684436651 C13.1097592,0.707029344 13.5643041,0.791074158 14.0114429,0.93476368 C14.2780599,1.02061591 14.4446955,1.26461698 14.4187744,1.52849963 C14.3169415,2.54065223 14.2706538,4.52067577 15.1019803,6.39496551 C15.1177181,6.43021011 15.1288272,6.46545471 15.1362332,6.5006993 L13.9188676,10.4291166 C10.6685476,10.974956 7.84777722,10.5655765 7.10162003,10.4354426 L5.8703681,6.5006993 C5.87869988,6.46545471 5.88980892,6.43021011 5.90554673,6.39586921 Z" id="Shape"></path>
                </g>
            </g>
        </g>
    </g>
</svg>