<?xml version="1.0" encoding="utf-8"?>
<!-- Generator: Adobe Illustrator 22.1.0, SVG Export Plug-In . SVG Version: 6.00 Build 0)  -->
<svg version="1.1" id="Layer_1" xmlns="http://www.w3.org/2000/svg" xmlns:xlink="http://www.w3.org/1999/xlink" x="0px" y="0px"
	 viewBox="0 0 81 55.1" style="enable-background:new 0 0 81 55.1;" xml:space="preserve">
<style type="text/css">
	.st0{display:none;}
	.st1{display:inline;}
	.st2{fill:#FFFFFF;}
	.st3{display:inline;fill:#FFFFFF;}
</style>
<g class="st0">
	<g class="st1">
		<path class="st2" d="M49.3,9.7L49,8.6h-2.4l-0.2-1H44l0.1,1h-7.3l0.1-1h-2.4l-0.2,1H32l-0.3,1.1h2.5L34,10.8h-2.6L31,12.1h2.8
			l-0.4,1.4h-2.8l-0.4,1.5h3l-0.4,1.6h-3.1l-0.5,1.8h3.2l-0.4,2h-3.4l-0.6,2.1h3.6L31,24.8h-3.8l-0.8,2.7h4l-0.6,3h-4.3l-1,3.4h4.6
			l-0.8,3.9h-4.9L22,42.3h5.3l-1.1,5.2H32l0.7-5.3h15.7l0.6,5.3h5.8l-1.1-5.3h5.2l-1.3-4.5h-4.9l-0.8-3.9h4.5l-1-3.4h-4.3l-0.6-3h4
			l-0.8-2.7H50l-0.5-2.4h3.6l-0.6-2.1H49l-0.4-2h3.2l-0.5-1.8h-3.1l-0.4-1.6h3l-0.4-1.5h-2.8L47.3,12H50l-0.4-1.2h-2.6l-0.2-1.2
			L49.3,9.7L49.3,9.7z M36.7,9.7h7.6l0.1,1.2h-7.8L36.7,9.7z M36.4,12.1h8.1l0.2,1.4h-8.5L36.4,12.1z M36,14.9h8.8l0.2,1.6h-9.3
			L36,14.9z M47.8,37.8H33.2l0.5-3.9h13.6L47.8,37.8z M46.8,30.5H34.1l0.4-3h12L46.8,30.5z M46.1,24.8H34.8l0.3-2.4h10.7L46.1,24.8z
			 M45.6,20.2H35.4l0.3-2h9.7L45.6,20.2z"/>
	</g>
</g>
<g class="st0">
	<path class="st3" d="M39.9,22.7c0,0.8-0.8,1.6-1.8,1.6c-0.4,0-5.6,0-6.1,0c-0.6,0-1.1-0.3-1.5-0.5c-0.3-0.3-2.5-1.9-3.3-2.4l-1.9,7
		L25.2,29c0,0,5.3,4.7,5.5,4.9c0.6,0.6,0.8,1.3,1.1,2.9c0.3,1.6,0.9,6.9,1,7.9c0.2,1.1-0.2,2.3-1.2,2.6c-1.1,0.3-2.1-0.5-2.5-1.8
		c-0.3-1.3-1.5-8.7-1.5-8.7l-6.1-4.4c0,0-1.7,5.4-1.9,5.8c-0.1,0.4-0.3,0.7-0.8,1.4c-0.5,0.5-6.1,6-7.2,7.1c-0.5,0.5-1.3,0.8-2,0.6
		c-0.8-0.2-1.4-0.9-1.4-1.8c0-0.7,0.3-1.4,0.7-1.8l6.1-6.1l2.4-9.6l2.4-7.8l0.9-2.8c0.7-2.1,2.7-2.6,4.3-2.1c1.7,0.5,2.1,1,3.1,1.9
		c0,0,4,3.6,4.1,3.6c0.1,0.1,0.2,0.1,0.3,0.2c0.2,0,4.4,0.1,5.3,0C39.1,21,39.9,21.7,39.9,22.7z"/>
	<circle class="st3" cx="26.6" cy="11.1" r="3.4"/>
	<path class="st3" d="M68.3,30.4L68.3,30.4c0-0.7,0-1.5,0-2.3l0,0.1l4.3-2.8L70,19.3l-5,1.1l0.1,0.1c-0.5-0.6-1.2-1.2-1.8-1.8
		l0.1,0.1l1.1-5l-6.1-2.5l-2.7,4.3l0.1,0.1c-0.8-0.1-1.6-0.1-2.5,0l0.1,0l-2.8-4.3l-6.1,2.6l1.1,5h0c-0.6,0.5-1.1,1-1.6,1.6l0,0
		l-5-1.1l-1.3,3.1l-1.3,3.1l4.3,2.7c-0.1,0.8-0.1,1.5,0,2.3l-4.3,2.7l2.6,6.1l4.9-1.1c0.5,0.6,1.1,1.1,1.7,1.6l-1.1,4.9l3.1,1.3
		l3.1,1.3l2.7-4.3c0.8,0.1,1.5,0.1,2.3,0l2.7,4.3l6.1-2.6l-1.1-5c0.6-0.5,1.1-1,1.6-1.6l5,1.1l1.3-3.1l1.3-3.1L68.3,30.4z
		 M54.6,36.5c-4,0-7.2-3.2-7.2-7.2s3.2-7.2,7.2-7.2s7.2,3.2,7.2,7.2S58.6,36.5,54.6,36.5z"/>
</g>
<g class="st0">
	<path class="st3" d="M57.4,34.3c-2-2-5-2.6-7.5-1.7L35.5,18.2c0.9-2.5,0.3-5.5-1.7-7.5c-1.5-1.5-3.4-2.2-5.3-2.1
		c-0.9,0-1,0.7-0.4,1.3l1.9,1.9c1.8,1.8,1.8,3.6,0,5.3c-1.8,1.8-3.6,1.8-5.3,0l-1.9-1.9c-0.6-0.6-1.3-0.4-1.3,0.4
		c0,1.9,0.7,3.8,2.1,5.3c2,2,5,2.6,7.5,1.7L45.5,37c-0.9,2.5-0.3,5.5,1.7,7.5c1.5,1.5,3.4,2.2,5.3,2.1c0.9,0,1-0.7,0.4-1.3l-1.9-1.9
		c-1.8-1.8-1.8-3.6,0-5.3c1.8-1.8,3.6-1.8,5.3,0l1.9,1.9c0.6,0.6,1.3,0.4,1.3-0.4C59.6,37.7,58.9,35.7,57.4,34.3z"/>
	<path class="st3" d="M52.7,18.2c0.1-0.1,0.3-0.3,0.5-0.3l2.6-1.2c0.4-0.2,0.6-0.4,0.9-0.8l2.1-3.6c0.1-0.2,0.1-0.3-0.1-0.5L57,10.1
		c-0.2-0.2-0.3-0.2-0.5-0.1l-3.6,2.1c-0.4,0.2-0.6,0.4-0.8,0.9L51,15.6c-0.1,0.2-0.2,0.3-0.3,0.5L35,31.6l2.1,2.1L52.7,18.2z"/>
	<path class="st3" d="M32.2,30.2c-0.3,0-0.6,0.2-0.8,0.4l-7.6,7.6c-2.4,2.4-2.2,4.4,0,6.5l0.3,0.3c2.2,2.2,4.1,2.4,6.5,0l7.6-7.6
		c0.2-0.2,0.3-0.5,0.4-0.8c0.1-0.6,0.2-1.4,0.8-2.1c0.1-0.2,0.1-0.5,0-0.6L35,29.4c-0.2-0.2-0.4-0.2-0.6,0
		C33.6,29.9,32.8,30.1,32.2,30.2z M24.2,41.8c-0.4-0.4-0.4-0.9,0-1.3l8.3-8.3c0.2-0.2,0.4-0.3,0.7-0.3c0.2,0,0.5,0.1,0.7,0.3
		c0.4,0.4,0.4,0.9,0,1.3l-8.3,8.3C25.1,42.1,24.5,42.1,24.2,41.8z M35.9,34.7c0.2,0,0.5,0.1,0.7,0.3c0.4,0.4,0.4,0.9,0,1.3l-8.3,8.3
		c-0.4,0.4-0.9,0.4-1.3,0c-0.4-0.4-0.4-0.9,0-1.3l8.3-8.3C35.5,34.8,35.7,34.7,35.9,34.7z"/>
</g>
<g class="st0">
	<path class="st3" d="M32.3,28.6v-9.8c0-0.5-0.4-0.9-0.9-0.9H19.6c-1,0-1.8,0.8-1.8,1.8v17.4c0,1,0.8,1.8,1.8,1.8h0
		c0.5,0,0.9,0.4,0.9,0.9v4.9c0,0.4,0.2,0.7,0.5,0.8c0.1,0.1,0.2,0.1,0.4,0.1c0.2,0,0.5-0.1,0.6-0.2l6.7-6.2c0.2-0.2,0.4-0.2,0.6-0.2
		H45c1,0,1.8-0.8,1.8-1.8v-4c0-0.5-0.4-0.9-0.9-0.9H36C34,32.3,32.3,30.6,32.3,28.6z"/>
	<path class="st3" d="M61.3,9.4H36c-1,0-1.8,0.8-1.8,1.8v17.4c0,1,0.8,1.8,1.8,1.8h15.6c0.2,0,0.4,0.1,0.6,0.2l6.7,6.2
		c0.2,0.2,0.4,0.2,0.6,0.2c0.1,0,0.3,0,0.4-0.1c0.3-0.1,0.5-0.5,0.5-0.8v-4.9c0-0.5,0.4-0.9,0.9-0.9h0c1,0,1.8-0.8,1.8-1.8V11.3
		C63.2,10.2,62.3,9.4,61.3,9.4z M55,25.1H41.4c-0.5,0-0.9-0.4-0.9-0.9c0-0.5,0.4-0.9,0.9-0.9H55c0.5,0,0.9,0.4,0.9,0.9
		C55.9,24.7,55.5,25.1,55,25.1z M55,20.9H41.4c-0.5,0-0.9-0.4-0.9-0.9c0-0.5,0.4-0.9,0.9-0.9H55c0.5,0,0.9,0.4,0.9,0.9
		C55.9,20.4,55.5,20.9,55,20.9z M55,16.6H41.4c-0.5,0-0.9-0.4-0.9-0.9c0-0.5,0.4-0.9,0.9-0.9H55c0.5,0,0.9,0.4,0.9,0.9
		C55.9,16.2,55.5,16.6,55,16.6z"/>
</g>
<g>
	<g>
		<path class="st2" d="M34.7,10.1c2.3,0,4.7,0,7,0c0.9-0.1,1.8,0.3,2.5,0.9c0.5,0.4,0.8,0.9,1,1.4c1.7,3.2,3.4,6.3,5.7,9.1
			c0.8,1,1.7,1.9,2.7,2.8c0.8,0.7,1.7,1.4,2.7,1.9s2,0.9,3,1.4c2.3,1.1,2,4,2,4.4c0,1.7,0,3.5,0,5.2c0,0.4-0.2,0.9-0.5,1.2
			c-0.2,0.2-0.6,0.3-0.9,0.3c-13.2,0-18.5,0-31.7,0c-1.2,0-2.4,0-3.6,0c-1.2-0.4-2.3-1-3.1-1.9c-1-0.9-1.6-2.3-1.8-3.6
			c-0.1-0.6-0.1-1.2-0.1-1.8c0-2.9,0-5.7,0-8.6c0-1.9,0.1-3.8,0.5-5.6c0.3-1.4,0.8-2.8,1.5-4c0.7-1.1,1.7-2.1,2.9-2.6
			c0.8-0.4,1.7-0.5,2.6-0.5c1.7,0,3.4,0,5,0 M26,12.5c-0.9,0-1.8,0.7-2,1.5c-0.5,1.5-1,3-1.5,4.5c-0.1,0.4-0.1,0.9,0.2,1.2
			c0.3,0.3,0.7,0.3,1.1,0.3c5.4,0,10.8,0,16.2,0c0.3,0,0.7-0.1,1-0.3c0.4-0.3,0.5-0.8,0.4-1.2c-0.2-1.5-0.4-3-0.6-4.5
			c-0.1-0.9-0.9-1.6-1.8-1.5C34.6,12.5,30.3,12.5,26,12.5z M48.1,20.5c0,0.7,0,1.3,0,2c0.1,2.4,0.1,4.9,0.2,7.3c0.9,0.8,2,1.4,3,2
			c0-0.7-0.1-1.4-0.1-2c-0.1-0.7,0-1.5-0.1-2.2c0-0.6,0-1.2-0.1-1.8c0-0.6,0-1.2-0.1-1.7C50.1,23,49,21.8,48.1,20.5z M52.2,29
			c0.1,0.7,0,1.4,0.1,2c0,0.4,0,0.8,0,1.2c0,0.1,0.1,0.1,0.2,0.1c0.9,0.3,1.9,0.7,2.9,0.9c-0.1-0.6,0-1.2-0.1-1.8
			c-0.1-0.7,0-1.3-0.1-2c0-0.7,0-1.4-0.1-2c-1.1-0.7-2.1-1.4-3-2.3C52.2,26.4,52.2,27.7,52.2,29z M24.2,26.9c-0.9,0.2-1.7,1-1.8,1.9
			c-0.1,0.9,0.4,1.9,1.2,2.3c0.6,0.3,1.4,0.3,2,0.1c0.6-0.3,1-0.8,1.3-1.4c0.3-0.9-0.1-1.9-0.8-2.5C25.6,26.9,24.9,26.7,24.2,26.9z
			 M39.2,26.9c-0.8,0.2-1.4,0.8-1.7,1.5c-0.2,0.7-0.1,1.4,0.3,2c0.6,0.8,1.7,1.2,2.6,0.9c0.7-0.2,1.2-0.8,1.4-1.4
			c0.3-0.9,0-2-0.8-2.5C40.6,26.9,39.9,26.7,39.2,26.9z M56.3,33.5c1,0.2,2,0.4,3,0.6c0-0.3,0-0.6,0-0.8c-0.1-0.7,0-1.3-0.1-2
			c0-0.6,0-1.2-0.1-1.9c-1-0.4-2-0.9-3-1.4C56.3,29.8,56.3,31.7,56.3,33.5z"/>
	</g>
	<path class="st2" d="M23.6,40.1c2,0,4,0,6,0c0,0.5,0,1,0,1.5c2.8,0,5.7,0,8.5,0c0-0.5,0-1,0-1.5c10.4,0,12.5,0,22.8,0
		c0,0.6,0,1.3,0,1.9c0,0.1-0.1,0.1-0.2,0.1c-8.9,1-9.7,2-18.6,3c-7.3,0-14.7,0-22.1,0c0-1.2,0-2.3,0-3.5c1.2,0,2.3,0,3.5,0
		C23.6,41.1,23.6,40.6,23.6,40.1z"/>
</g>
</svg>
