<?xml version="1.0" encoding="UTF-8"?>
<svg width="42px" height="41px" viewBox="0 0 42 41" version="1.1" xmlns="http://www.w3.org/2000/svg" xmlns:xlink="http://www.w3.org/1999/xlink">
    <!-- Generator: Sketch 57.1 (83088) - https://sketch.com -->
    <title>noun_Domain registration_2341385</title>
    <desc>Created with Sketch.</desc>
    <g id="Cerrado" stroke="none" stroke-width="1" fill="none" fill-rule="evenodd">
        <g id="Home-desplegado-2" transform="translate(-566.000000, -306.000000)" fill="#1B9DF8" fill-rule="nonzero">
            <g id="Group-10" transform="translate(219.000000, 294.000000)">
                <g id="noun_Domain-registration_2341385" transform="translate(347.000000, 12.000000)">
                    <path d="M34.8940218,5.69264373 L34.8940218,5.69264373 C34.8940218,5.69264373 34.8940218,5.69264373 34.8574606,5.69264373 C26.9568478,-1.89754791 14.4889032,-1.89754791 6.58829041,5.69264373 C6.58829041,5.69264373 6.58829041,5.69264373 6.55172915,5.69264373 L6.55172915,5.69264373 C0.526788998,11.493235 -1.37585918,20.3801553 1.74447558,28.1464426 C4.86481035,35.9127298 12.3820014,41 20.7375,41 C29.0929986,41 36.6101896,35.9127298 39.7305244,28.1464426 C42.8508592,20.3801553 40.948211,11.493235 34.9232709,5.69264373 L34.8940218,5.69264373 Z M10.4710968,19.7305684 C10.5525361,16.6110141 11.2250102,13.5353978 12.4527173,10.6674615 C14.8271276,11.7224367 17.3812631,12.3118678 19.9770257,12.4038854 L19.9770257,19.7305684 L10.4710968,19.7305684 Z M24.2693182,1.75088826 C27.606252,2.38242454 30.7125524,3.90068324 33.2633894,6.14689808 C32.1502498,7.13331627 30.9227225,7.98198151 29.6072629,8.67460372 C28.2888144,6.0442634 26.4763955,3.69341991 24.2693182,1.75088826 L24.2693182,1.75088826 Z M28.3203064,9.34133188 C26.1463985,10.2996997 23.8125206,10.8414525 21.4394763,10.9385488 L21.4394763,1.41386084 C24.3723049,3.42287491 26.7414865,6.15243191 28.3203064,9.34133188 Z M19.9770257,1.41386084 L19.9770257,10.9385488 C17.6049225,10.8460858 15.2710827,10.309312 13.0961956,9.35598524 C14.6729438,6.1617343 17.0422899,3.42694196 19.9770257,1.41386084 Z M11.7799901,8.74054387 C10.4645304,8.04792166 9.2370032,7.19925641 8.12386355,6.21283823 C10.6747006,3.96662339 13.7810009,2.44836469 17.1179348,1.81682841 C14.9108574,3.75936005 13.0984385,6.11020355 11.7799901,8.74054387 L11.7799901,8.74054387 Z M21.4394763,12.4038854 C24.0268519,12.3137084 26.5732429,11.7293198 28.9418479,10.6821149 C30.1752858,13.544009 30.8551789,16.6145381 30.9454052,19.7305684 L21.4394763,19.7305684 L21.4394763,12.4038854 Z M32.4078558,19.7305684 C32.3259382,16.3902584 31.6035255,13.0969183 30.2799902,10.0300401 C31.7465363,9.25252305 33.1140664,8.30049693 34.3529151,7.19461375 C37.6320642,10.5614654 39.5450187,15.0294821 39.7201088,19.7305684 L32.4078558,19.7305684 Z M7.08552362,7.19461375 C8.32437235,8.30049693 9.69190247,9.25252305 11.1584485,10.0300401 C9.8273732,13.0954125 9.0975,16.3888109 9.00864616,19.7305684 L1.69639314,19.7305684 C1.87739888,15.026496 3.79834175,10.5580845 7.08552362,7.19461375 L7.08552362,7.19461375 Z M20.708251,39.5126179 C10.4873487,39.52019 2.08950208,31.4294025 1.69639314,21.195905 L39.7201088,21.195905 C39.3269999,31.4294025 30.9291532,39.52019 20.708251,39.5126179 Z" id="Shape"></path>
                    <path d="M15.6401097,26.2998181 C15.4338514,26.2660375 15.222574,26.3155085 15.0530774,26.4372729 C14.8835808,26.5590373 14.769856,26.7430441 14.7370941,26.948534 L14.3523309,29.2932906 L13.8654877,28.3163087 C13.7342863,28.0466693 13.4597766,27.8754084 13.1587799,27.8754084 C12.8577831,27.8754084 12.5832735,28.0466693 12.452072,28.3163087 L11.9652288,29.2932906 L11.5804656,26.948534 C11.5355799,26.6693004 11.3444396,26.435113 11.0790454,26.3341879 C10.8136512,26.2332629 10.5143228,26.2809331 10.2938144,26.4592416 C10.073306,26.6375502 9.96511796,26.9194078 10.0100037,27.1986414 L10.7952347,31.9272338 C10.8477008,32.2658956 11.1156726,32.5310493 11.4562186,32.5812663 C11.7967645,32.6314833 12.1304615,32.455052 12.2793212,32.1460778 L13.1587799,30.4109579 L14.0225339,32.1538936 C14.165398,32.4071402 14.4375629,32.5606509 14.7292418,32.5525022 L14.8470264,32.5525022 C15.1829891,32.5033039 15.4491127,32.2447227 15.5066204,31.9116021 L16.2918514,27.1830097 C16.35305,26.7609354 16.0630441,26.3679411 15.6401097,26.2998181 Z" id="Path"></path>
                    <path d="M23.7776097,26.2998181 C23.5713514,26.2660375 23.360074,26.3155085 23.1905774,26.4372729 C23.0210808,26.5590373 22.907356,26.7430441 22.8745941,26.948534 L22.4898309,29.2932906 L22.0029877,28.3163087 C21.8717863,28.0466693 21.5972766,27.8754084 21.2962799,27.8754084 C20.9952831,27.8754084 20.7207735,28.0466693 20.589572,28.3163087 L20.1027288,29.2932906 L19.7179656,26.948534 C19.6730799,26.6693004 19.4819396,26.435113 19.2165454,26.3341879 C18.9511512,26.2332629 18.6518228,26.2809331 18.4313144,26.4592416 C18.210806,26.6375502 18.102618,26.9194078 18.1475037,27.1986414 L18.9327347,31.9272338 C18.9852008,32.2658956 19.2531726,32.5310493 19.5937186,32.5812663 C19.9342645,32.6314833 20.2679615,32.455052 20.4168212,32.1460778 L21.2962799,30.4109579 L22.1600339,32.1538936 C22.302898,32.4071402 22.5750629,32.5606509 22.8667418,32.5525022 L22.9845264,32.5525022 C23.3204891,32.5033039 23.5866127,32.2447227 23.6441204,31.9116021 L24.4293514,27.1830097 C24.49055,26.7609354 24.2005441,26.3679411 23.7776097,26.2998181 L23.7776097,26.2998181 Z" id="Path"></path>
                    <path d="M31.3901097,26.2998181 C31.1838514,26.2660375 30.972574,26.3155085 30.8030774,26.4372729 C30.6335808,26.5590373 30.519856,26.7430441 30.4870941,26.948534 L30.1023309,29.2932906 L29.6154877,28.3163087 C29.4842863,28.0466693 29.2097766,27.8754084 28.9087799,27.8754084 C28.6077831,27.8754084 28.3332735,28.0466693 28.202072,28.3163087 L27.7152288,29.2932906 L27.3304656,26.948534 C27.2855799,26.6693004 27.0944396,26.435113 26.8290454,26.3341879 C26.5636512,26.2332629 26.2643228,26.2809331 26.0438144,26.4592416 C25.823306,26.6375502 25.715118,26.9194078 25.7600037,27.1986414 L26.5452347,31.9272338 C26.5977008,32.2658956 26.8656726,32.5310493 27.2062186,32.5812663 C27.5467645,32.6314833 27.8804615,32.455052 28.0293212,32.1460778 L28.9087799,30.4109579 L29.7725339,32.1538936 C29.915398,32.4071402 30.1875629,32.5606509 30.4792418,32.5525022 L30.5970264,32.5525022 C30.9329891,32.5033039 31.1991127,32.2447227 31.2566204,31.9116021 L32.0418514,27.1830097 C32.10305,26.7609354 31.8130441,26.3679411 31.3901097,26.2998181 L31.3901097,26.2998181 Z" id="Path"></path>
                </g>
            </g>
        </g>
    </g>
</svg>