<?xml version="1.0" encoding="UTF-8"?>
<svg width="41px" height="33px" viewBox="0 0 41 33" version="1.1" xmlns="http://www.w3.org/2000/svg" xmlns:xlink="http://www.w3.org/1999/xlink">
    <!-- Generator: Sketch 57.1 (83088) - https://sketch.com -->
    <title>noun_design_2060178</title>
    <desc>Created with Sketch.</desc>
    <g id="Cerrado" stroke="none" stroke-width="1" fill="none" fill-rule="evenodd">
        <g id="Home-desplegado-2" transform="translate(-456.000000, -312.000000)" fill="#1B9DF8" fill-rule="nonzero">
            <g id="Group-10" transform="translate(219.000000, 294.000000)">
                <g id="noun_design_2060178" transform="translate(237.000000, 18.000000)">
                    <g id="Group" transform="translate(0.262500, 0.000000)">
                        <path d="M5.58829688,19.6301875 C5.47640625,19.8433125 5.48867813,20.0963125 5.62005938,20.299125 C5.7521625,20.50125 5.98388438,20.625 6.234375,20.625 L17.51295,20.625 C19.0137281,23.0869375 21.8052187,24.75 25.003125,24.75 C29.7797719,24.75 33.665625,21.0491875 33.665625,16.5 C33.665625,12.6644375 30.8986781,9.44075 27.16875,8.5215625 L27.16875,0.6875 C27.16875,0.308 26.84535,0 26.446875,0 L10.565625,0 C10.16715,0 9.84375,0.308 9.84375,0.6875 L9.84375,11.52525 L5.58829688,19.6301875 Z M7.40236875,19.25 L14.175,6.34975 L17.4169406,12.524875 C16.7326031,13.7053125 16.340625,15.0596875 16.340625,16.5 C16.340625,17.46525 16.5247031,18.3885625 16.8459375,19.25 L7.40236875,19.25 Z M32.221875,16.5 C32.221875,20.290875 28.9835437,23.375 25.003125,23.375 C21.0227062,23.375 17.784375,20.290875 17.784375,16.5 C17.784375,12.709125 21.0227062,9.625 25.003125,9.625 C28.9835437,9.625 32.221875,12.709125 32.221875,16.5 Z M11.2875,1.375 L25.725,1.375 L25.725,8.2850625 C25.4860594,8.2658125 25.2471187,8.25 25.003125,8.25 C22.3314656,8.25 19.9391719,9.409125 18.3488812,11.2261875 L14.8203562,4.5051875 C14.5756406,4.0390625 13.7736375,4.0390625 13.5289219,4.5051875 L11.2875,8.77525 L11.2875,1.375 Z" id="Shape"></path>
                        <path d="M30.4424531,4.125 L35.2422,4.125 C35.5410562,4.9231875 36.3351187,5.5 37.275,5.5 C38.4689812,5.5 39.440625,4.574625 39.440625,3.4375 C39.440625,2.300375 38.4689812,1.375 37.275,1.375 C36.3351187,1.375 35.5410562,1.9518125 35.2422,2.75 L30.05625,2.75 C29.8151437,2.75 29.5899187,2.8648125 29.45565,3.0559375 L28.0119,5.1184375 L29.2131,5.880875 L30.4424531,4.125 Z M37.275,2.75 C37.6727531,2.75 37.996875,3.0586875 37.996875,3.4375 C37.996875,3.8163125 37.6727531,4.125 37.275,4.125 C36.8772469,4.125 36.553125,3.8163125 36.553125,3.4375 C36.553125,3.0586875 36.8772469,2.75 37.275,2.75 Z" id="Shape"></path>
                        <path d="M2.625,26.125 C3.56488125,26.125 4.35894375,25.5481875 4.6578,24.75 L9.84375,24.75 C10.242225,24.75 10.565625,24.442 10.565625,24.0625 L10.565625,22 L9.121875,22 L9.121875,23.375 L4.6578,23.375 C4.35894375,22.5768125 3.56488125,22 2.625,22 C1.43101875,22 0.459375,22.925375 0.459375,24.0625 C0.459375,25.199625 1.43101875,26.125 2.625,26.125 Z M2.625,23.375 C3.02275312,23.375 3.346875,23.6836875 3.346875,24.0625 C3.346875,24.4413125 3.02275312,24.75 2.625,24.75 C2.22724687,24.75 1.903125,24.4413125 1.903125,24.0625 C1.903125,23.6836875 2.22724687,23.375 2.625,23.375 Z" id="Shape"></path>
                        <path d="M37.1992031,18.2551875 C37.0764844,18.022125 36.8267156,17.875 36.553125,17.875 L34.3875,17.875 L34.3875,19.25 L36.1070062,19.25 L36.9653156,20.8855625 C36.29325,21.2355 35.83125,21.907875 35.83125,22.6875 C35.83125,23.824625 36.8028938,24.75 37.996875,24.75 C39.1908562,24.75 40.1625,23.824625 40.1625,22.6875 C40.1625,21.70575 39.4370156,20.8855625 38.4711469,20.678625 L37.1992031,18.2551875 Z M37.996875,23.375 C37.5991219,23.375 37.275,23.0663125 37.275,22.6875 C37.275,22.3086875 37.5991219,22 37.996875,22 C38.3946281,22 38.71875,22.3086875 38.71875,22.6875 C38.71875,23.0663125 38.3946281,23.375 37.996875,23.375 Z" id="Shape"></path>
                        <rect id="Rectangle" x="0" y="0" width="4.33125" height="1.375"></rect>
                        <rect id="Rectangle" x="0" y="3.09375" width="6.496875" height="1.375"></rect>
                        <rect id="Rectangle" x="15.4875" y="29.90625" width="10.5" height="2.578125" rx="1"></rect>
                    </g>
                </g>
            </g>
        </g>
    </g>
</svg>