<?xml version="1.0" encoding="UTF-8"?>
<svg width="28px" height="22px" viewBox="0 0 28 22" version="1.1" xmlns="http://www.w3.org/2000/svg" xmlns:xlink="http://www.w3.org/1999/xlink">
    <!-- Generator: Sketch 57.1 (83088) - https://sketch.com -->
    <title>noun_Health_1343060</title>
    <desc>Created with Sketch.</desc>
    <g id="Cerrado" stroke="none" stroke-width="1" fill="none" fill-rule="evenodd">
        <g id="Home-desplegado-2" transform="translate(-566.000000, -3049.000000)" fill="#000000" fill-rule="nonzero">
            <g id="Categories" transform="translate(221.000000, 2784.000000)">
                <g id="noun_Health_1343060" transform="translate(345.000000, 265.000000)">
                    <path d="M27.999942,7.6157281 C28.0079599,5.59384264 27.1838979,3.65281334 25.7113139,2.22513852 C22.9650306,-0.44493888 18.2841434,-0.335169032 15.0496321,2.40314368 C13.2187766,0.809997496 11.5038753,3.67918683e-05 9.93544243,3.67918683e-05 C7.85573093,-0.00625235501 5.85927844,0.793981965 4.38840678,2.22348195 C2.91753512,3.65298194 2.09368404,5.59372361 2.09938096,7.6157281 C2.09845321,8.33418081 2.20116779,9.04920981 2.40452354,9.73992301 L0.610285162,9.73992301 C0.273233974,9.73992301 0,10.0055751 0,10.3332735 C0,10.660972 0.273233974,10.9266241 0.610285162,10.9266241 L2.87444311,10.9266241 C3.25954576,11.6972035 3.77532359,12.3992555 4.40015602,13.0033509 L13.5849477,21.434862 C14.407618,22.1883793 15.6916462,22.1883793 16.5143165,21.434862 L25.7143653,13.0063177 C26.3954326,12.342909 26.9438205,11.5622665 27.331621,10.7041176 C27.412597,10.6101197 27.4616333,10.4940401 27.4719866,10.3718413 C27.8208399,9.49253275 27.999942,8.55818337 27.999942,7.6157281 L27.999942,7.6157281 Z M3.31991647,7.6157281 C3.31424843,5.90845539 4.00950226,4.26955196 5.25147432,3.0626 C6.49344638,1.85564804 8.17944581,1.18044281 9.93544243,1.18673094 C11.2811212,1.18673094 12.9044797,2.03526635 14.6285353,3.64027954 C14.8654643,3.86449896 15.2429542,3.86449896 15.4798831,3.64027954 C17.8874581,1.32621246 22.1533514,0.451020424 24.8477604,3.07066302 C26.0902758,4.27736958 26.7846924,5.91716608 26.7763374,7.62462836 C26.7747011,8.3479084 26.6488782,9.06585404 26.4039875,9.74882327 L22.2632027,9.74882327 L20.2919816,6.5506639 C20.169046,6.35244145 19.9387725,6.2418203 19.7021447,6.2673119 C19.4655169,6.2928035 19.2657374,6.44975369 19.1904169,6.669334 L17.0971388,12.7808445 L15.7087401,9.60938589 C15.6122959,9.39130211 15.3914405,9.25009582 15.1472777,9.25040882 L13.1333367,9.25040882 C12.928102,9.25044168 12.7366277,9.35076803 12.6237486,9.51741656 L11.5862638,11.0452942 L10.1276823,6.81767164 C10.0495628,6.59085259 9.83900118,6.43181927 9.59363613,6.41431648 C9.34827109,6.3968137 9.1160903,6.52426458 9.00475756,6.73756932 L7.43022184,9.73992301 L3.69527665,9.73992301 C3.4489575,9.05722444 3.32209102,8.33920972 3.31991647,7.6157281 Z M24.8630175,12.1548597 L15.6782258,20.571537 C15.3254155,20.8955391 14.7738487,20.8955391 14.4210384,20.571537 L5.26676095,12.1667267 C4.88615817,11.7943329 4.55411128,11.3778384 4.27809898,10.9266241 L7.80249579,10.9266241 C8.03162997,10.9265146 8.24139355,10.8016282 8.34564959,10.603248 L9.43195717,8.52652117 L10.8264588,12.5731718 C10.9007825,12.7876587 11.0941361,12.9423546 11.3249255,12.9719785 C11.555715,13.0016024 11.7837365,12.9009939 11.9127664,12.7126092 L13.4598392,10.4371099 L14.7444895,10.4371099 L16.6028078,14.6676992 C16.699252,14.885783 16.9201074,15.0269893 17.1642702,15.0266763 L17.1886816,15.0266763 C17.4420305,15.0173941 17.6630917,14.8567893 17.7440411,14.6231979 L19.928862,8.27434719 L21.3965978,10.6477493 C21.5044043,10.8293239 21.7027654,10.9421056 21.9183916,10.9444246 L25.8394737,10.9444246 C25.5658035,11.384992 25.2378981,11.7914702 24.8630175,12.1548597 L24.8630175,12.1548597 Z" id="Shape"></path>
                </g>
            </g>
        </g>
    </g>
</svg>