<?xml version="1.0" encoding="UTF-8"?>
<svg width="36px" height="36px" viewBox="0 0 36 36" version="1.1" xmlns="http://www.w3.org/2000/svg" xmlns:xlink="http://www.w3.org/1999/xlink">
    <!-- Generator: Sketch 57.1 (83088) - https://sketch.com -->
    <title>noun_CV_2547707</title>
    <desc>Created with Sketch.</desc>
    <g id="Cerrado" stroke="none" stroke-width="1" fill="none" fill-rule="evenodd">
        <g id="Home-desplegado-2" transform="translate(-235.000000, -308.000000)" fill="#1B9DF8" fill-rule="nonzero">
            <g id="Group-10" transform="translate(219.000000, 294.000000)">
                <g id="noun_CV_2547707" transform="translate(16.000000, 14.000000)">
                    <path d="M33.6,0 L2.4,0 C1.076,0 0,1.076 0,2.4 L0,33.6 C0,34.924 1.076,36 2.4,36 L33.6,36 C34.924,36 36,34.924 36,33.6 L36,2.4 C36,1.076 34.924,0 33.6,0 Z M1.6,2.4 C1.6,1.96 1.96,1.6 2.4,1.6 L19.136,1.6 L17.216,4 L1.6,4 L1.6,2.4 Z M34.4,33.6 C34.4,34.04 34.04,34.4 33.6,34.4 L2.4,34.4 C1.96,34.4 1.6,34.04 1.6,33.6 L1.6,9.6 L34.4,9.6 L34.4,33.6 Z M34.4,8 L1.6,8 L1.6,5.6 L17.6,5.6 C17.844,5.6 18.072,5.488 18.224,5.3 L21.184,1.6 L33.6,1.6 C34.04,1.6 34.4,1.96 34.4,2.4 L34.4,8 Z M8,18 C8,17.56 8.36,17.2 8.8,17.2 L16.8,17.2 C17.24,17.2 17.6,17.56 17.6,18 C17.6,18.44 17.24,18.8 16.8,18.8 L8.8,18.8 C8.36,18.8 8,18.44 8,18 Z M8,22 C8,21.56 8.36,21.2 8.8,21.2 L16.8,21.2 C17.24,21.2 17.6,21.56 17.6,22 C17.6,22.44 17.24,22.8 16.8,22.8 L8.8,22.8 C8.36,22.8 8,22.44 8,22 Z M8,26 C8,25.56 8.36,25.2 8.8,25.2 L16.8,25.2 C17.24,25.2 17.6,25.56 17.6,26 C17.6,26.44 17.24,26.8 16.8,26.8 L8.8,26.8 C8.36,26.8 8,26.44 8,26 Z" id="Shape"></path>
                </g>
            </g>
        </g>
    </g>
</svg>